<svg xmlns="http://www.w3.org/2000/svg" width="43.735" height="18.896" viewBox="0 0 43.735 18.896">
  <g id="Untitled-1" transform="translate(0.5 0.562)">
    <path id="Path_1" data-name="Path 1" d="M150.971,58.376c2.966-1.209,4.97-3.529,5.169-5.683-1.64-1.408-4.689-1.673-7.671-.464-2.966,1.209-4.97,3.529-5.169,5.683C144.94,59.32,147.989,59.585,150.971,58.376Z" transform="translate(-122.065 -44.227)" fill="none" stroke="#865e31" stroke-miterlimit="10" stroke-width="1"/>
    <path id="Path_2" data-name="Path 2" d="M72.569,58.376C69.6,57.166,67.6,54.847,67.4,52.693c1.64-1.408,4.689-1.673,7.671-.464,2.966,1.209,4.97,3.529,5.169,5.683C78.583,59.32,75.535,59.585,72.569,58.376Z" transform="translate(-58.74 -44.227)" fill="none" stroke="#865e31" stroke-miterlimit="10" stroke-width="1"/>
    <path id="Path_3" data-name="Path 3" d="M148.077,31.621c1.972-2.535,2.568-5.533,1.657-7.505-2.137-.414-4.9.878-6.875,3.413s-2.568,5.533-1.657,7.505C143.338,35.432,146.105,34.139,148.077,31.621Z" transform="translate(-119.966 -21.349)" fill="none" stroke="#865e31" stroke-miterlimit="10" stroke-width="1"/>
    <path id="Path_4" data-name="Path 4" d="M92.858,31.621c-1.972-2.535-2.568-5.533-1.657-7.505,2.137-.414,4.9.878,6.875,3.413s2.568,5.533,1.657,7.505C97.613,35.432,94.846,34.139,92.858,31.621Z" transform="translate(-78.25 -21.349)" fill="none" stroke="#865e31" stroke-miterlimit="10" stroke-width="1"/>
    <path id="Path_5" data-name="Path 5" d="M130.727,14.725c0-3.214-1.392-5.931-3.313-6.925-1.938.994-3.313,3.711-3.313,6.925s1.392,5.931,3.313,6.925C129.335,20.656,130.727,17.939,130.727,14.725Z" transform="translate(-106.046 -7.8)" fill="none" stroke="#865e31" stroke-miterlimit="10" stroke-width="1"/>
    <path id="Path_6" data-name="Path 6" d="M35.949,30.006a13.211,13.211,0,0,1-18.671-.364,7.736,7.736,0,0,1,.215-10.918,4.505,4.505,0,0,1,6.378.116,2.626,2.626,0,0,1-.083,3.728,1.531,1.531,0,0,1-2.187-.05.9.9,0,0,1,.033-1.276.525.525,0,0,1,.746.017.3.3,0,0,1-.017.431.18.18,0,0,1-.249,0" transform="translate(-15.128 -15.857)" fill="none" stroke="#865e31" stroke-linecap="round" stroke-linejoin="round" stroke-miterlimit="10" stroke-width="1"/>
    <path id="Path_7" data-name="Path 7" d="M147.4,29.964a13.2,13.2,0,0,0,18.671-.381,7.736,7.736,0,0,0-.215-10.918,4.505,4.505,0,0,0-6.378.133,2.626,2.626,0,0,0,.083,3.728,1.531,1.531,0,0,0,2.187-.05.9.9,0,0,0-.033-1.276.525.525,0,0,0-.746.017.3.3,0,0,0,.017.431.18.18,0,0,0,.249,0" transform="translate(-125.486 -15.816)" fill="none" stroke="#865e31" stroke-linecap="round" stroke-linejoin="round" stroke-miterlimit="10" stroke-width="1"/>
  </g>
</svg>
