<svg id="Layer_1" data-name="Layer 1" xmlns="http://www.w3.org/2000/svg" viewBox="0 0 496.5 641.26"><defs><style>.cls-1{fill:#2e284b;}.cls-2{font-size:31px;fill:#fff;font-family:Arial-BoldMT, Arial;font-weight:700;}.cls-3{font-size:16px;font-family:ArialMT, Arial;font-weight:400;}.cls-4{fill:none;stroke:#fff;stroke-linecap:round;stroke-linejoin:round;stroke-width:1.5px;}</style></defs><title>Art Deco Quotes_V02</title><rect class="cls-1" width="496.5" height="641.26"/><text class="cls-2" transform="translate(73.44 263.61)">Invest for the long haul.<tspan x="-7.74" y="40">Don’t get too greedy and </tspan><tspan x="22.39" y="80">don’t get too scared.</tspan><tspan class="cls-3"><tspan x="215.87" y="134.2">– Shelby M.C. Davis</tspan></tspan></text><rect class="cls-4" x="234.66" y="48.93" width="27.18" height="27.18" transform="translate(116.92 -157.23) rotate(45)"/><polyline class="cls-4" points="257.86 52.91 238.64 72.13 229.03 81.73 138.66 81.73 132.8 75.87 112.96 75.87 104.52 67.43 45.32 67.43"/><line class="cls-4" x1="248.24" y1="62.53" x2="238.63" y2="52.92"/><line class="cls-4" x1="243.44" y1="57.72" x2="253.05" y2="48.1"/><line class="cls-4" x1="248.24" y1="52.91" x2="243.44" y2="48.11"/><line class="cls-4" x1="245.84" y1="50.51" x2="250.65" y2="45.7"/><line class="cls-4" x1="248.24" y1="48.1" x2="245.84" y2="45.71"/><line class="cls-4" x1="132.8" y1="75.87" x2="234.32" y2="75.87"/><line class="cls-4" x1="104.52" y1="67.43" x2="233.95" y2="67.43"/><polyline class="cls-4" points="234.71 56.84 95.18 56.84 84.53 67.49"/><line class="cls-4" x1="119.02" y1="75.87" x2="110.69" y2="67.54"/><line class="cls-4" x1="125.19" y1="75.87" x2="116.86" y2="67.54"/><line class="cls-4" x1="131.37" y1="75.87" x2="123.04" y2="67.54"/><line class="cls-4" x1="137.54" y1="75.87" x2="129.21" y2="67.54"/><line class="cls-4" x1="143.71" y1="75.87" x2="135.38" y2="67.54"/><line class="cls-4" x1="149.89" y1="75.87" x2="141.56" y2="67.54"/><line class="cls-4" x1="156.06" y1="75.87" x2="147.73" y2="67.54"/><line class="cls-4" x1="162.23" y1="75.87" x2="153.9" y2="67.54"/><line class="cls-4" x1="168.41" y1="75.87" x2="160.08" y2="67.54"/><line class="cls-4" x1="174.58" y1="75.87" x2="166.25" y2="67.54"/><line class="cls-4" x1="180.75" y1="75.87" x2="172.42" y2="67.54"/><line class="cls-4" x1="186.93" y1="75.87" x2="178.6" y2="67.54"/><line class="cls-4" x1="193.1" y1="75.87" x2="184.77" y2="67.54"/><line class="cls-4" x1="199.27" y1="75.87" x2="190.94" y2="67.54"/><line class="cls-4" x1="205.44" y1="75.87" x2="197.11" y2="67.54"/><line class="cls-4" x1="211.62" y1="75.87" x2="203.29" y2="67.54"/><line class="cls-4" x1="217.79" y1="75.87" x2="209.46" y2="67.54"/><line class="cls-4" x1="223.96" y1="75.87" x2="215.63" y2="67.54"/><line class="cls-4" x1="230.14" y1="75.87" x2="221.81" y2="67.54"/><line class="cls-4" x1="235.6" y1="75.16" x2="227.98" y2="67.54"/><polyline class="cls-4" points="229.03 62.52 100.59 62.52 96.26 66.85"/><polyline class="cls-4" points="238.64 52.91 257.86 72.13 267.47 81.73 357.84 81.73 363.7 75.87 383.54 75.87 391.98 67.43 451.18 67.43"/><line class="cls-4" x1="363.7" y1="75.87" x2="262.18" y2="75.87"/><line class="cls-4" x1="391.98" y1="67.43" x2="262.55" y2="67.43"/><polyline class="cls-4" points="261.79 56.84 401.32 56.84 411.97 67.49"/><line class="cls-4" x1="377.48" y1="75.87" x2="385.81" y2="67.54"/><line class="cls-4" x1="371.31" y1="75.87" x2="379.64" y2="67.54"/><line class="cls-4" x1="365.13" y1="75.87" x2="373.46" y2="67.54"/><line class="cls-4" x1="358.96" y1="75.87" x2="367.29" y2="67.54"/><line class="cls-4" x1="352.79" y1="75.87" x2="361.12" y2="67.54"/><line class="cls-4" x1="346.61" y1="75.87" x2="354.94" y2="67.54"/><line class="cls-4" x1="340.44" y1="75.87" x2="348.77" y2="67.54"/><line class="cls-4" x1="334.27" y1="75.87" x2="342.6" y2="67.54"/><line class="cls-4" x1="328.09" y1="75.87" x2="336.42" y2="67.54"/><line class="cls-4" x1="321.92" y1="75.87" x2="330.25" y2="67.54"/><line class="cls-4" x1="315.75" y1="75.87" x2="324.08" y2="67.54"/><line class="cls-4" x1="309.58" y1="75.87" x2="317.91" y2="67.54"/><line class="cls-4" x1="303.4" y1="75.87" x2="311.73" y2="67.54"/><line class="cls-4" x1="297.23" y1="75.87" x2="305.56" y2="67.54"/><line class="cls-4" x1="291.06" y1="75.87" x2="299.39" y2="67.54"/><line class="cls-4" x1="284.88" y1="75.87" x2="293.21" y2="67.54"/><line class="cls-4" x1="278.71" y1="75.87" x2="287.04" y2="67.54"/><line class="cls-4" x1="272.54" y1="75.87" x2="280.87" y2="67.54"/><line class="cls-4" x1="266.36" y1="75.87" x2="274.69" y2="67.54"/><line class="cls-4" x1="260.9" y1="75.16" x2="268.52" y2="67.54"/><polyline class="cls-4" points="267.47 62.52 395.91 62.52 400.24 66.85"/><rect class="cls-4" x="234.66" y="558.93" width="27.18" height="27.18" transform="translate(477.54 -7.85) rotate(45)"/><polyline class="cls-4" points="257.86 562.91 238.64 582.13 229.03 591.73 138.66 591.73 132.8 585.87 112.96 585.87 104.52 577.43 45.32 577.43"/><line class="cls-4" x1="248.24" y1="572.53" x2="238.63" y2="562.92"/><line class="cls-4" x1="243.44" y1="567.72" x2="253.05" y2="558.1"/><line class="cls-4" x1="248.24" y1="562.91" x2="243.44" y2="558.11"/><line class="cls-4" x1="245.84" y1="560.51" x2="250.65" y2="555.7"/><line class="cls-4" x1="248.24" y1="558.1" x2="245.84" y2="555.71"/><line class="cls-4" x1="132.8" y1="585.87" x2="234.32" y2="585.87"/><line class="cls-4" x1="104.52" y1="577.43" x2="233.95" y2="577.43"/><polyline class="cls-4" points="234.71 566.84 95.18 566.84 84.53 577.49"/><line class="cls-4" x1="119.02" y1="585.87" x2="110.69" y2="577.54"/><line class="cls-4" x1="125.19" y1="585.87" x2="116.86" y2="577.54"/><line class="cls-4" x1="131.37" y1="585.87" x2="123.04" y2="577.54"/><line class="cls-4" x1="137.54" y1="585.87" x2="129.21" y2="577.54"/><line class="cls-4" x1="143.71" y1="585.87" x2="135.38" y2="577.54"/><line class="cls-4" x1="149.89" y1="585.87" x2="141.56" y2="577.54"/><line class="cls-4" x1="156.06" y1="585.87" x2="147.73" y2="577.54"/><line class="cls-4" x1="162.23" y1="585.87" x2="153.9" y2="577.54"/><line class="cls-4" x1="168.41" y1="585.87" x2="160.08" y2="577.54"/><line class="cls-4" x1="174.58" y1="585.87" x2="166.25" y2="577.54"/><line class="cls-4" x1="180.75" y1="585.87" x2="172.42" y2="577.54"/><line class="cls-4" x1="186.93" y1="585.87" x2="178.6" y2="577.54"/><line class="cls-4" x1="193.1" y1="585.87" x2="184.77" y2="577.54"/><line class="cls-4" x1="199.27" y1="585.87" x2="190.94" y2="577.54"/><line class="cls-4" x1="205.44" y1="585.87" x2="197.11" y2="577.54"/><line class="cls-4" x1="211.62" y1="585.87" x2="203.29" y2="577.54"/><line class="cls-4" x1="217.79" y1="585.87" x2="209.46" y2="577.54"/><line class="cls-4" x1="223.96" y1="585.87" x2="215.63" y2="577.54"/><line class="cls-4" x1="230.14" y1="585.87" x2="221.81" y2="577.54"/><line class="cls-4" x1="235.6" y1="585.16" x2="227.98" y2="577.54"/><polyline class="cls-4" points="229.03 572.52 100.59 572.52 96.26 576.85"/><polyline class="cls-4" points="238.64 562.91 257.86 582.13 267.47 591.73 357.84 591.73 363.7 585.87 383.54 585.87 391.98 577.43 451.18 577.43"/><line class="cls-4" x1="363.7" y1="585.87" x2="262.18" y2="585.87"/><line class="cls-4" x1="391.98" y1="577.43" x2="262.55" y2="577.43"/><polyline class="cls-4" points="261.79 566.84 401.32 566.84 411.97 577.49"/><line class="cls-4" x1="377.48" y1="585.87" x2="385.81" y2="577.54"/><line class="cls-4" x1="371.31" y1="585.87" x2="379.64" y2="577.54"/><line class="cls-4" x1="365.13" y1="585.87" x2="373.46" y2="577.54"/><line class="cls-4" x1="358.96" y1="585.87" x2="367.29" y2="577.54"/><line class="cls-4" x1="352.79" y1="585.87" x2="361.12" y2="577.54"/><line class="cls-4" x1="346.61" y1="585.87" x2="354.94" y2="577.54"/><line class="cls-4" x1="340.44" y1="585.87" x2="348.77" y2="577.54"/><line class="cls-4" x1="334.27" y1="585.87" x2="342.6" y2="577.54"/><line class="cls-4" x1="328.09" y1="585.87" x2="336.42" y2="577.54"/><line class="cls-4" x1="321.92" y1="585.87" x2="330.25" y2="577.54"/><line class="cls-4" x1="315.75" y1="585.87" x2="324.08" y2="577.54"/><line class="cls-4" x1="309.58" y1="585.87" x2="317.91" y2="577.54"/><line class="cls-4" x1="303.4" y1="585.87" x2="311.73" y2="577.54"/><line class="cls-4" x1="297.23" y1="585.87" x2="305.56" y2="577.54"/><line class="cls-4" x1="291.06" y1="585.87" x2="299.39" y2="577.54"/><line class="cls-4" x1="284.88" y1="585.87" x2="293.21" y2="577.54"/><line class="cls-4" x1="278.71" y1="585.87" x2="287.04" y2="577.54"/><line class="cls-4" x1="272.54" y1="585.87" x2="280.87" y2="577.54"/><line class="cls-4" x1="266.36" y1="585.87" x2="274.69" y2="577.54"/><line class="cls-4" x1="260.9" y1="585.16" x2="268.52" y2="577.54"/><polyline class="cls-4" points="267.47 572.52 395.91 572.52 400.24 576.85"/></svg>