<svg id="Layer_1" data-name="Layer 1" xmlns="http://www.w3.org/2000/svg" viewBox="0 0 496.5 641.26"><defs><style>.cls-1{fill:#335772;}.cls-2{font-size:31px;fill:#fff;font-family:Arial-BoldMT, Arial;font-weight:700;}.cls-3{letter-spacing:0em;}.cls-4{font-size:16px;font-family:ArialMT, Arial;font-weight:400;}.cls-5{fill:none;stroke:#fff;stroke-linecap:round;stroke-linejoin:round;stroke-width:1.5px;}</style></defs><title>Art Deco Quotes_V02</title><rect class="cls-1" width="496.5" height="641.26"/><text class="cls-2" transform="translate(63.91 125.54)">The best way to measure <tspan x="12.91" y="40">your investing success </tspan><tspan x="6.06" y="80">is not by whether you’re </tspan><tspan x="18.13" y="120">beating the market but </tspan><tspan x="2.63" y="160">by whether you’ve put in </tspan><tspan x="28.43" y="200">place a financial plan </tspan><tspan x="62.7" y="240">and </tspan><tspan class="cls-3" x="126.43" y="240">a behavioral </tspan><tspan class="cls-3" x="10.15" y="280">discipline </tspan><tspan x="160.38" y="280">that are likely </tspan><tspan x="29.33" y="320">to get you where you </tspan><tspan x="102.55" y="360">want to go.</tspan><tspan class="cls-4"><tspan x="228.05" y="414.2">– Benjamin Graham</tspan></tspan></text><line class="cls-5" x1="241.91" y1="59.87" x2="45.98" y2="59.87"/><rect class="cls-5" x="155.39" y="52.81" width="14.03" height="14.03" transform="translate(319.54 -12.7) rotate(135)"/><rect class="cls-5" x="145.47" y="52.81" width="14.03" height="14.03" transform="translate(302.6 -5.69) rotate(135)"/><line class="cls-5" x1="157.44" y1="54.87" x2="170.08" y2="67.5"/><line class="cls-5" x1="159.68" y1="62.54" x2="167.36" y2="70.22"/><line class="cls-5" x1="157.44" y1="64.79" x2="169.98" y2="52.25"/><line class="cls-5" x1="159.68" y1="57.11" x2="167.26" y2="49.53"/><line class="cls-5" x1="157.44" y1="54.87" x2="144.8" y2="67.5"/><line class="cls-5" x1="155.2" y1="62.54" x2="147.52" y2="70.22"/><line class="cls-5" x1="157.44" y1="64.79" x2="144.9" y2="52.25"/><line class="cls-5" x1="155.2" y1="57.11" x2="147.62" y2="49.53"/><line class="cls-5" x1="162.4" y1="59.83" x2="172.32" y2="59.83"/><line class="cls-5" x1="152.48" y1="59.83" x2="142.56" y2="59.83"/><circle class="cls-5" cx="248.25" cy="59.87" r="19.02"/><circle class="cls-5" cx="248.25" cy="59.87" r="11.92"/><path class="cls-5" d="M219,71.1a12.13,12.13,0,0,1-5,1.05,12.28,12.28,0,1,1,4.78-23.59"/><path class="cls-5" d="M235.3,73.8a15.18,15.18,0,1,1-.16-27.92"/><path class="cls-5" d="M233.62,72a12.79,12.79,0,0,1-3.36.45,12.61,12.61,0,0,1,0-25.21,12.79,12.79,0,0,1,3.36.45"/><path class="cls-5" d="M232.33,70.27a9.71,9.71,0,0,1-1.21.07,10.47,10.47,0,1,1,0-20.94,9.46,9.46,0,0,1,1.07.06"/><path class="cls-5" d="M231.11,68.05a8.23,8.23,0,0,1,0-16.35"/><line class="cls-5" x1="229.23" y1="59.87" x2="201.77" y2="59.87"/><line class="cls-5" x1="210.4" y1="48.15" x2="210.4" y2="71.6"/><line class="cls-5" x1="210.4" y1="59.88" x2="203.71" y2="53.19"/><line class="cls-5" x1="210.4" y1="59.88" x2="203.75" y2="66.53"/><line class="cls-5" x1="254.59" y1="59.87" x2="450.52" y2="59.87"/><rect class="cls-5" x="327.09" y="52.81" width="14.03" height="14.03" transform="translate(140.16 -218.72) rotate(45)"/><rect class="cls-5" x="337.01" y="52.81" width="14.03" height="14.03" transform="translate(143.06 -225.73) rotate(45)"/><line class="cls-5" x1="339.06" y1="54.87" x2="326.42" y2="67.5"/><line class="cls-5" x1="336.82" y1="62.54" x2="329.14" y2="70.22"/><line class="cls-5" x1="339.06" y1="64.79" x2="326.52" y2="52.25"/><line class="cls-5" x1="336.82" y1="57.11" x2="329.24" y2="49.53"/><line class="cls-5" x1="339.06" y1="54.87" x2="351.7" y2="67.5"/><line class="cls-5" x1="341.3" y1="62.54" x2="348.98" y2="70.22"/><line class="cls-5" x1="339.06" y1="64.79" x2="351.6" y2="52.25"/><line class="cls-5" x1="341.3" y1="57.11" x2="348.88" y2="49.53"/><line class="cls-5" x1="334.1" y1="59.83" x2="324.18" y2="59.83"/><line class="cls-5" x1="344.02" y1="59.83" x2="353.94" y2="59.83"/><path class="cls-5" d="M277.48,71.1a12.13,12.13,0,0,0,5,1.05,12.28,12.28,0,1,0-4.78-23.59"/><path class="cls-5" d="M261.2,73.8a15.18,15.18,0,1,0,.16-27.92"/><path class="cls-5" d="M262.88,72a12.79,12.79,0,0,0,3.36.45,12.61,12.61,0,0,0,0-25.21,12.79,12.79,0,0,0-3.36.45"/><path class="cls-5" d="M264.17,70.27a9.71,9.71,0,0,0,1.21.07,10.47,10.47,0,1,0,0-20.94,9.46,9.46,0,0,0-1.07.06"/><path class="cls-5" d="M265.39,68.05a8.23,8.23,0,0,0,0-16.35"/><line class="cls-5" x1="267.27" y1="59.87" x2="294.73" y2="59.87"/><line class="cls-5" x1="286.1" y1="48.15" x2="286.1" y2="71.6"/><line class="cls-5" x1="286.1" y1="59.88" x2="292.79" y2="53.19"/><line class="cls-5" x1="286.1" y1="59.88" x2="292.75" y2="66.53"/><line class="cls-5" x1="248.25" y1="78.89" x2="248.25" y2="40.86"/><line class="cls-5" x1="244.17" y1="48.68" x2="241.75" y2="42"/><line class="cls-5" x1="240.59" y1="50.75" x2="236.03" y2="45.31"/><line class="cls-5" x1="237.93" y1="53.92" x2="231.78" y2="50.37"/><line class="cls-5" x1="236.52" y1="57.8" x2="229.52" y2="56.57"/><line class="cls-5" x1="236.52" y1="61.94" x2="229.52" y2="63.18"/><line class="cls-5" x1="237.93" y1="65.83" x2="231.78" y2="69.38"/><line class="cls-5" x1="240.59" y1="69" x2="236.03" y2="74.44"/><line class="cls-5" x1="244.17" y1="71.07" x2="241.75" y2="77.74"/><line class="cls-5" x1="252.33" y1="71.07" x2="254.75" y2="77.74"/><line class="cls-5" x1="255.91" y1="69" x2="260.47" y2="74.44"/><line class="cls-5" x1="258.57" y1="65.83" x2="264.72" y2="69.38"/><line class="cls-5" x1="259.98" y1="61.94" x2="266.98" y2="63.18"/><line class="cls-5" x1="259.98" y1="57.8" x2="266.98" y2="56.57"/><line class="cls-5" x1="258.57" y1="53.92" x2="264.72" y2="50.37"/><line class="cls-5" x1="255.91" y1="50.75" x2="260.47" y2="45.31"/><line class="cls-5" x1="252.33" y1="48.68" x2="254.75" y2="42"/><line class="cls-5" x1="241.91" y1="570.87" x2="45.98" y2="570.87"/><rect class="cls-5" x="155.39" y="563.81" width="14.03" height="14.03" transform="translate(680.87 859.63) rotate(135)"/><rect class="cls-5" x="145.47" y="563.81" width="14.03" height="14.03" transform="translate(663.93 866.64) rotate(135)"/><line class="cls-5" x1="157.44" y1="565.87" x2="170.08" y2="578.5"/><line class="cls-5" x1="159.68" y1="573.54" x2="167.36" y2="581.22"/><line class="cls-5" x1="157.44" y1="575.79" x2="169.98" y2="563.25"/><line class="cls-5" x1="159.68" y1="568.11" x2="167.26" y2="560.53"/><line class="cls-5" x1="157.44" y1="565.87" x2="144.8" y2="578.5"/><line class="cls-5" x1="155.2" y1="573.54" x2="147.52" y2="581.22"/><line class="cls-5" x1="157.44" y1="575.79" x2="144.9" y2="563.25"/><line class="cls-5" x1="155.2" y1="568.11" x2="147.62" y2="560.53"/><line class="cls-5" x1="162.4" y1="570.83" x2="172.32" y2="570.83"/><line class="cls-5" x1="152.48" y1="570.83" x2="142.56" y2="570.83"/><circle class="cls-5" cx="248.25" cy="570.87" r="19.02"/><circle class="cls-5" cx="248.25" cy="570.87" r="11.92"/><path class="cls-5" d="M219,582.1a12.13,12.13,0,0,1-5,1,12.28,12.28,0,1,1,4.78-23.59"/><path class="cls-5" d="M235.3,584.8a15.18,15.18,0,1,1-.16-27.92"/><path class="cls-5" d="M233.62,583a12.79,12.79,0,0,1-3.36.45,12.61,12.61,0,0,1,0-25.21,12.79,12.79,0,0,1,3.36.45"/><path class="cls-5" d="M232.33,581.27a9.71,9.71,0,0,1-1.21.07,10.47,10.47,0,1,1,0-20.94,9.46,9.46,0,0,1,1.07.06"/><path class="cls-5" d="M231.11,579.05a8.23,8.23,0,0,1,0-16.35"/><line class="cls-5" x1="229.23" y1="570.87" x2="201.77" y2="570.87"/><line class="cls-5" x1="210.4" y1="559.15" x2="210.4" y2="582.6"/><line class="cls-5" x1="210.4" y1="570.88" x2="203.71" y2="564.19"/><line class="cls-5" x1="210.4" y1="570.88" x2="203.75" y2="577.53"/><line class="cls-5" x1="254.59" y1="570.87" x2="450.52" y2="570.87"/><rect class="cls-5" x="327.09" y="563.81" width="14.03" height="14.03" transform="translate(501.49 -69.05) rotate(45)"/><rect class="cls-5" x="337.01" y="563.81" width="14.03" height="14.03" transform="translate(504.39 -76.07) rotate(45)"/><line class="cls-5" x1="339.06" y1="565.87" x2="326.42" y2="578.5"/><line class="cls-5" x1="336.82" y1="573.54" x2="329.14" y2="581.22"/><line class="cls-5" x1="339.06" y1="575.79" x2="326.52" y2="563.25"/><line class="cls-5" x1="336.82" y1="568.11" x2="329.24" y2="560.53"/><line class="cls-5" x1="339.06" y1="565.87" x2="351.7" y2="578.5"/><line class="cls-5" x1="341.3" y1="573.54" x2="348.98" y2="581.22"/><line class="cls-5" x1="339.06" y1="575.79" x2="351.6" y2="563.25"/><line class="cls-5" x1="341.3" y1="568.11" x2="348.88" y2="560.53"/><line class="cls-5" x1="334.1" y1="570.83" x2="324.18" y2="570.83"/><line class="cls-5" x1="344.02" y1="570.83" x2="353.94" y2="570.83"/><path class="cls-5" d="M277.48,582.1a12.13,12.13,0,0,0,5,1,12.28,12.28,0,1,0-4.78-23.59"/><path class="cls-5" d="M261.2,584.8a15.18,15.18,0,1,0,.16-27.92"/><path class="cls-5" d="M262.88,583a12.79,12.79,0,0,0,3.36.45,12.61,12.61,0,0,0,0-25.21,12.79,12.79,0,0,0-3.36.45"/><path class="cls-5" d="M264.17,581.27a9.71,9.71,0,0,0,1.21.07,10.47,10.47,0,0,0,0-20.94,9.46,9.46,0,0,0-1.07.06"/><path class="cls-5" d="M265.39,579.05a8.23,8.23,0,0,0,0-16.35"/><line class="cls-5" x1="267.27" y1="570.87" x2="294.73" y2="570.87"/><line class="cls-5" x1="286.1" y1="559.15" x2="286.1" y2="582.6"/><line class="cls-5" x1="286.1" y1="570.88" x2="292.79" y2="564.19"/><line class="cls-5" x1="286.1" y1="570.88" x2="292.75" y2="577.53"/><line class="cls-5" x1="248.25" y1="589.89" x2="248.25" y2="551.86"/><line class="cls-5" x1="244.17" y1="559.68" x2="241.75" y2="553"/><line class="cls-5" x1="240.59" y1="561.75" x2="236.03" y2="556.31"/><line class="cls-5" x1="237.93" y1="564.92" x2="231.78" y2="561.37"/><line class="cls-5" x1="236.52" y1="568.8" x2="229.52" y2="567.57"/><line class="cls-5" x1="236.52" y1="572.94" x2="229.52" y2="574.18"/><line class="cls-5" x1="237.93" y1="576.83" x2="231.78" y2="580.38"/><line class="cls-5" x1="240.59" y1="580" x2="236.03" y2="585.44"/><line class="cls-5" x1="244.17" y1="582.07" x2="241.75" y2="588.74"/><line class="cls-5" x1="252.33" y1="582.07" x2="254.75" y2="588.74"/><line class="cls-5" x1="255.91" y1="580" x2="260.47" y2="585.44"/><line class="cls-5" x1="258.57" y1="576.83" x2="264.72" y2="580.38"/><line class="cls-5" x1="259.98" y1="572.94" x2="266.98" y2="574.18"/><line class="cls-5" x1="259.98" y1="568.8" x2="266.98" y2="567.57"/><line class="cls-5" x1="258.57" y1="564.92" x2="264.72" y2="561.37"/><line class="cls-5" x1="255.91" y1="561.75" x2="260.47" y2="556.31"/><line class="cls-5" x1="252.33" y1="559.68" x2="254.75" y2="553"/></svg>