<svg id="Layer_1" data-name="Layer 1" xmlns="http://www.w3.org/2000/svg" viewBox="0 0 496.5 641.26"><defs><style>.cls-1{fill:#2e284b;}.cls-2{font-size:31px;fill:#fff;font-family:Arial-BoldMT, Arial;font-weight:700;}.cls-3{font-size:16px;font-family:ArialMT, Arial;font-weight:400;}.cls-4{letter-spacing:-0.04em;}.cls-5{fill:none;stroke:#fff;stroke-linecap:round;stroke-linejoin:round;stroke-width:1.5px;}</style></defs><title>Art Deco Quotes_V02</title><rect class="cls-1" width="496.5" height="641.26"/><text class="cls-2" transform="translate(96.64 203.98)">Far more money has <tspan x="-12.05" y="40">been lost by investors </tspan><tspan x="12.96" y="80">trying to anticipate </tspan><tspan x="-6" y="120">corrections, than lost </tspan><tspan x="21.55" y="160">in the corrections </tspan><tspan x="62.86" y="200">themselves.</tspan><tspan class="cls-3"><tspan x="228.38" y="254.2">– Peter </tspan><tspan class="cls-4" x="284.42" y="254.2">L</tspan><tspan x="292.72" y="254.2">ynch</tspan></tspan></text><rect class="cls-5" x="238.64" y="51.87" width="17.93" height="17.93" transform="translate(115.54 -157.26) rotate(45)"/><rect class="cls-5" x="238.64" y="64.55" width="17.93" height="17.93" transform="translate(124.5 -153.55) rotate(45)"/><line class="cls-5" x1="241.26" y1="67.17" x2="257.41" y2="51.02"/><line class="cls-5" x1="251.07" y1="64.31" x2="260.89" y2="54.5"/><line class="cls-5" x1="253.94" y1="67.17" x2="237.91" y2="51.15"/><line class="cls-5" x1="244.13" y1="64.31" x2="234.44" y2="54.62"/><line class="cls-5" x1="241.26" y1="67.17" x2="257.41" y2="83.32"/><line class="cls-5" x1="251.07" y1="70.04" x2="260.89" y2="79.85"/><line class="cls-5" x1="253.94" y1="67.17" x2="237.91" y2="83.2"/><line class="cls-5" x1="244.13" y1="70.04" x2="234.44" y2="79.73"/><line class="cls-5" x1="247.6" y1="60.83" x2="247.6" y2="48.16"/><line class="cls-5" x1="247.6" y1="73.51" x2="247.6" y2="86.19"/><line class="cls-5" x1="241.26" y1="67.17" x2="45.33" y2="67.17"/><polyline class="cls-5" points="234.92 60.83 205.18 60.83 198.95 67.07"/><polyline class="cls-5" points="234.92 73.51 212.38 73.51 206.25 67.38"/><line class="cls-5" x1="212.38" y1="73.51" x2="212.38" y2="67.38"/><line class="cls-5" x1="216.08" y1="73.51" x2="216.08" y2="67.38"/><line class="cls-5" x1="219.78" y1="73.51" x2="219.78" y2="67.38"/><line class="cls-5" x1="223.47" y1="73.51" x2="223.47" y2="67.38"/><line class="cls-5" x1="227.17" y1="73.51" x2="227.17" y2="67.38"/><line class="cls-5" x1="230.87" y1="73.51" x2="230.87" y2="67.38"/><line class="cls-5" x1="234.56" y1="73.51" x2="234.56" y2="67.38"/><line class="cls-5" x1="253.94" y1="67.17" x2="451.17" y2="67.17"/><polyline class="cls-5" points="260.28 60.83 290.02 60.83 296.25 67.07"/><polyline class="cls-5" points="260.28 73.51 282.82 73.51 288.95 67.38"/><line class="cls-5" x1="282.82" y1="73.51" x2="282.82" y2="67.38"/><line class="cls-5" x1="279.12" y1="73.51" x2="279.12" y2="67.38"/><line class="cls-5" x1="275.43" y1="73.51" x2="275.43" y2="67.38"/><line class="cls-5" x1="271.73" y1="73.51" x2="271.73" y2="67.38"/><line class="cls-5" x1="268.03" y1="73.51" x2="268.03" y2="67.38"/><line class="cls-5" x1="264.33" y1="73.51" x2="264.33" y2="67.38"/><line class="cls-5" x1="260.64" y1="73.51" x2="260.64" y2="67.38"/><line class="cls-5" x1="202.07" y1="63.95" x2="237.91" y2="63.95"/><line class="cls-5" x1="293.13" y1="63.95" x2="257.29" y2="63.95"/><line class="cls-5" x1="52.86" y1="63.95" x2="59.3" y2="70.39"/><line class="cls-5" x1="59.3" y1="63.95" x2="52.86" y2="70.39"/><line class="cls-5" x1="73.54" y1="59.41" x2="89.07" y2="74.94"/><line class="cls-5" x1="89.07" y1="59.41" x2="73.54" y2="74.94"/><line class="cls-5" x1="442.34" y1="63.95" x2="435.91" y2="70.39"/><line class="cls-5" x1="435.91" y1="63.95" x2="442.34" y2="70.39"/><line class="cls-5" x1="421.66" y1="59.41" x2="406.13" y2="74.94"/><line class="cls-5" x1="406.13" y1="59.41" x2="421.66" y2="74.94"/><rect class="cls-5" x="238.64" y="559.87" width="17.93" height="17.93" transform="translate(474.74 -8.47) rotate(45)"/><rect class="cls-5" x="238.64" y="572.55" width="17.93" height="17.93" transform="translate(483.71 -4.76) rotate(45)"/><line class="cls-5" x1="241.26" y1="575.17" x2="257.41" y2="559.02"/><line class="cls-5" x1="251.07" y1="572.31" x2="260.89" y2="562.5"/><line class="cls-5" x1="253.94" y1="575.17" x2="237.91" y2="559.15"/><line class="cls-5" x1="244.13" y1="572.31" x2="234.44" y2="562.62"/><line class="cls-5" x1="241.26" y1="575.17" x2="257.41" y2="591.32"/><line class="cls-5" x1="251.07" y1="578.04" x2="260.89" y2="587.85"/><line class="cls-5" x1="253.94" y1="575.17" x2="237.91" y2="591.2"/><line class="cls-5" x1="244.13" y1="578.04" x2="234.44" y2="587.73"/><line class="cls-5" x1="247.6" y1="568.83" x2="247.6" y2="556.16"/><line class="cls-5" x1="247.6" y1="581.51" x2="247.6" y2="594.19"/><line class="cls-5" x1="241.26" y1="575.17" x2="45.33" y2="575.17"/><polyline class="cls-5" points="234.92 568.83 205.18 568.83 198.95 575.07"/><polyline class="cls-5" points="234.92 581.51 212.38 581.51 206.25 575.38"/><line class="cls-5" x1="212.38" y1="581.51" x2="212.38" y2="575.38"/><line class="cls-5" x1="216.08" y1="581.51" x2="216.08" y2="575.38"/><line class="cls-5" x1="219.78" y1="581.51" x2="219.78" y2="575.38"/><line class="cls-5" x1="223.47" y1="581.51" x2="223.47" y2="575.38"/><line class="cls-5" x1="227.17" y1="581.51" x2="227.17" y2="575.38"/><line class="cls-5" x1="230.87" y1="581.51" x2="230.87" y2="575.38"/><line class="cls-5" x1="234.56" y1="581.51" x2="234.56" y2="575.38"/><line class="cls-5" x1="253.94" y1="575.17" x2="451.17" y2="575.17"/><polyline class="cls-5" points="260.28 568.83 290.02 568.83 296.25 575.07"/><polyline class="cls-5" points="260.28 581.51 282.82 581.51 288.95 575.38"/><line class="cls-5" x1="282.82" y1="581.51" x2="282.82" y2="575.38"/><line class="cls-5" x1="279.12" y1="581.51" x2="279.12" y2="575.38"/><line class="cls-5" x1="275.43" y1="581.51" x2="275.43" y2="575.38"/><line class="cls-5" x1="271.73" y1="581.51" x2="271.73" y2="575.38"/><line class="cls-5" x1="268.03" y1="581.51" x2="268.03" y2="575.38"/><line class="cls-5" x1="264.33" y1="581.51" x2="264.33" y2="575.38"/><line class="cls-5" x1="260.64" y1="581.51" x2="260.64" y2="575.38"/><line class="cls-5" x1="202.07" y1="571.95" x2="237.91" y2="571.95"/><line class="cls-5" x1="293.13" y1="571.95" x2="257.29" y2="571.95"/><line class="cls-5" x1="52.86" y1="571.95" x2="59.3" y2="578.39"/><line class="cls-5" x1="59.3" y1="571.95" x2="52.86" y2="578.39"/><line class="cls-5" x1="73.54" y1="567.41" x2="89.07" y2="582.94"/><line class="cls-5" x1="89.07" y1="567.41" x2="73.54" y2="582.94"/><line class="cls-5" x1="442.34" y1="571.95" x2="435.91" y2="578.39"/><line class="cls-5" x1="435.91" y1="571.95" x2="442.34" y2="578.39"/><line class="cls-5" x1="421.66" y1="567.41" x2="406.13" y2="582.94"/><line class="cls-5" x1="406.13" y1="567.41" x2="421.66" y2="582.94"/></svg>