<svg xmlns="http://www.w3.org/2000/svg" xmlns:xlink="http://www.w3.org/1999/xlink" width="889" height="700" viewBox="0 0 889 700"><defs><style>.a{fill:none;}.b{opacity:0.2;}.c{clip-path:url(#a);}.aa,.ab,.ac,.ad,.ae,.af,.ag,.ah,.ai,.aj,.ak,.al,.am,.an,.ao,.ap,.aq,.ar,.as,.at,.au,.av,.aw,.ax,.ay,.az,.ba,.bb,.bc,.bd,.be,.bf,.bg,.bh,.bi,.bj,.bk,.bl,.bm,.bn,.bo,.bp,.bq,.br,.bs,.bt,.bu,.bv,.bw,.bx,.by,.bz,.ca,.cb,.cc,.cd,.ce,.cf,.cg,.ch,.ci,.cj,.d,.e,.f,.g,.h,.i,.j,.k,.l,.m,.n,.o,.p,.q,.r,.s,.t,.u,.v,.w,.x,.y,.z{opacity:0.6;}.d{fill:url(#b);}.e{fill:url(#c);}.f{fill:url(#d);}.g{fill:url(#e);}.h{fill:url(#f);}.i{fill:url(#g);}.j{fill:url(#h);}.k{fill:url(#i);}.l{fill:url(#l);}.m{fill:url(#m);}.n{fill:url(#t);}.o{fill:url(#u);}.p{fill:url(#z);}.q{fill:url(#aa);}.r{fill:url(#ab);}.s{fill:url(#ac);}.t{fill:url(#ae);}.u{fill:url(#af);}.v{fill:url(#aj);}.w{fill:url(#ak);}.x{fill:url(#an);}.y{fill:url(#ao);}.z{fill:url(#av);}.aa{fill:url(#ax);}.ab{fill:url(#ay);}.ac{fill:url(#az);}.ad{fill:url(#ba);}.ae{fill:url(#bb);}.af{fill:url(#bc);}.ag{fill:url(#bd);}.ah{fill:url(#be);}.ai{fill:url(#bh);}.aj{fill:url(#bk);}.ak{fill:url(#bm);}.al{fill:url(#bp);}.am{fill:url(#bq);}.an{fill:url(#bv);}.ao{fill:url(#bw);}.ap{fill:url(#bx);}.aq{fill:url(#by);}.ar{fill:url(#ca);}.as{fill:url(#cb);}.at{fill:url(#cf);}.au{fill:url(#cg);}.av{fill:url(#cj);}.aw{fill:url(#ck);}.ax{fill:url(#cr);}.ay{fill:url(#ct);}.az{fill:url(#cu);}.ba{fill:url(#cv);}.bb{fill:url(#cw);}.bc{fill:url(#cx);}.bd{fill:url(#cy);}.be{fill:url(#cz);}.bf{fill:url(#da);}.bg{fill:url(#dh);}.bh{fill:url(#di);}.bi{fill:url(#dl);}.bj{fill:url(#dm);}.bk{fill:url(#dr);}.bl{fill:url(#ds);}.bm{fill:url(#dt);}.bn{fill:url(#du);}.bo{fill:url(#dx);}.bp{fill:url(#eb);}.bq{fill:url(#ei);}.br{fill:url(#ej);}.bs{fill:url(#en);}.bt{fill:url(#eo);}.bu{fill:url(#er);}.bv{fill:url(#es);}.bw{fill:url(#ez);}.bx{fill:url(#fb);}.by{fill:url(#fc);}.bz{fill:url(#fd);}.ca{fill:url(#fe);}.cb{fill:url(#ff);}.cc{fill:url(#fg);}.cd{fill:url(#fh);}.ce{fill:url(#fi);}.cf{fill:url(#fo);}.cg{fill:url(#fp);}.ch{fill:url(#fq);}.ci{fill:url(#ft);}.cj{fill:url(#fu);}</style><clipPath id="a"><rect class="a" width="889" height="700"/></clipPath><linearGradient id="b" x1="0.5" y1="20.565" x2="0.507" y2="21.565" gradientUnits="objectBoundingBox"><stop offset="0" stop-color="#f3f3f3"/><stop offset="1" stop-color="#c4c4c4"/></linearGradient><linearGradient id="c" y1="27.224" x2="0.509" y2="28.225" xlink:href="#b"/><linearGradient id="d" y1="40.58" x2="0.514" y2="41.58" xlink:href="#b"/><linearGradient id="e" y1="80.655" x2="0.528" y2="81.655" xlink:href="#b"/><linearGradient id="f" y1="20.565" x2="0.5" y2="21.565" xlink:href="#b"/><linearGradient id="g" y1="27.219" x2="0.5" y2="28.219" xlink:href="#b"/><linearGradient id="h" y1="40.58" x2="0.5" y2="41.58" xlink:href="#b"/><linearGradient id="i" y1="80.655" x2="0.5" y2="81.655" xlink:href="#b"/><linearGradient id="l" y1="40.58" x2="0.5" y2="41.58" xlink:href="#b"/><linearGradient id="m" y1="80.655" x2="0.5" y2="81.655" xlink:href="#b"/><linearGradient id="t" y1="40.58" x2="0.5" y2="41.58" xlink:href="#b"/><linearGradient id="u" y1="80.655" x2="0.5" y2="81.655" xlink:href="#b"/><linearGradient id="z" y1="19.565" x2="0.5" y2="20.565" xlink:href="#b"/><linearGradient id="aa" y1="25.886" x2="0.5" y2="26.886" xlink:href="#b"/><linearGradient id="ab" y1="38.58" x2="0.5" y2="39.58" xlink:href="#b"/><linearGradient id="ac" y1="76.655" x2="0.5" y2="77.655" xlink:href="#b"/><linearGradient id="ae" y1="25.886" x2="0.5" y2="26.886" xlink:href="#b"/><linearGradient id="af" y1="38.58" x2="0.5" y2="39.58" xlink:href="#b"/><linearGradient id="aj" y1="38.58" x2="0.5" y2="39.58" xlink:href="#b"/><linearGradient id="ak" y1="76.655" x2="0.5" y2="77.655" xlink:href="#b"/><linearGradient id="an" y1="38.58" x2="0.5" y2="39.58" xlink:href="#b"/><linearGradient id="ao" y1="76.655" x2="0.5" y2="77.655" xlink:href="#b"/><linearGradient id="av" y1="38.58" x2="0.5" y2="39.58" xlink:href="#b"/><linearGradient id="ax" y1="18.564" x2="0.507" y2="19.564" xlink:href="#b"/><linearGradient id="ay" y1="24.556" x2="0.509" y2="25.556" xlink:href="#b"/><linearGradient id="az" y1="36.578" x2="0.514" y2="37.577" xlink:href="#b"/><linearGradient id="ba" y1="72.655" x2="0.528" y2="73.655" xlink:href="#b"/><linearGradient id="bb" y1="18.564" x2="0.5" y2="19.564" xlink:href="#b"/><linearGradient id="bc" y1="24.554" x2="0.5" y2="25.554" xlink:href="#b"/><linearGradient id="bd" y1="36.578" x2="0.5" y2="37.577" xlink:href="#b"/><linearGradient id="be" y1="72.655" x2="0.5" y2="73.655" xlink:href="#b"/><linearGradient id="bh" y1="36.578" x2="0.5" y2="37.577" xlink:href="#b"/><linearGradient id="bk" y1="24.556" x2="0.5" y2="25.556" xlink:href="#b"/><linearGradient id="bm" y1="72.655" x2="0.5" y2="73.655" xlink:href="#b"/><linearGradient id="bp" y1="36.578" x2="0.5" y2="37.577" xlink:href="#b"/><linearGradient id="bq" y1="72.655" x2="0.5" y2="73.655" xlink:href="#b"/><linearGradient id="bv" y1="17.564" x2="0.5" y2="18.564" xlink:href="#b"/><linearGradient id="bw" y1="23.219" x2="0.5" y2="24.219" xlink:href="#b"/><linearGradient id="bx" y1="34.59" x2="0.5" y2="35.59" xlink:href="#b"/><linearGradient id="by" y1="68.665" x2="0.5" y2="69.665" xlink:href="#b"/><linearGradient id="ca" y1="23.219" x2="0.5" y2="24.219" xlink:href="#b"/><linearGradient id="cb" y1="34.59" x2="0.5" y2="35.59" xlink:href="#b"/><linearGradient id="cf" y1="34.58" x2="0.5" y2="35.58" xlink:href="#b"/><linearGradient id="cg" y1="68.665" x2="0.5" y2="69.665" xlink:href="#b"/><linearGradient id="cj" y1="34.58" x2="0.5" y2="35.58" xlink:href="#b"/><linearGradient id="ck" y1="68.665" x2="0.5" y2="69.665" xlink:href="#b"/><linearGradient id="cr" y1="34.58" x2="0.5" y2="35.58" xlink:href="#b"/><linearGradient id="ct" y1="16.565" x2="0.507" y2="17.565" xlink:href="#b"/><linearGradient id="cu" y1="21.886" x2="0.509" y2="22.886" xlink:href="#b"/><linearGradient id="cv" y1="32.571" x2="0.514" y2="33.571" xlink:href="#b"/><linearGradient id="cw" y1="64.655" x2="0.528" y2="65.655" xlink:href="#b"/><linearGradient id="cx" y1="16.565" x2="0.5" y2="17.565" xlink:href="#b"/><linearGradient id="cy" y1="21.886" x2="0.5" y2="22.886" xlink:href="#b"/><linearGradient id="cz" y1="32.58" x2="0.5" y2="33.58" xlink:href="#b"/><linearGradient id="da" y1="64.655" x2="0.5" y2="65.655" xlink:href="#b"/><linearGradient id="dh" y1="32.58" x2="0.5" y2="33.58" xlink:href="#b"/><linearGradient id="di" y1="64.655" x2="0.5" y2="65.655" xlink:href="#b"/><linearGradient id="dl" y1="32.58" x2="0.5" y2="33.58" xlink:href="#b"/><linearGradient id="dm" y1="64.655" x2="0.5" y2="65.655" xlink:href="#b"/><linearGradient id="dr" y1="15.565" x2="0.5" y2="16.565" xlink:href="#b"/><linearGradient id="ds" y1="20.553" x2="0.5" y2="21.553" xlink:href="#b"/><linearGradient id="dt" y1="30.58" x2="0.5" y2="31.58" xlink:href="#b"/><linearGradient id="du" y1="60.656" x2="0.5" y2="61.656" xlink:href="#b"/><linearGradient id="dx" y1="40.58" x2="0.5" y2="41.58" xlink:href="#b"/><linearGradient id="eb" y1="36.578" x2="0.5" y2="37.577" xlink:href="#b"/><linearGradient id="ei" y1="20.553" x2="0.5" y2="21.553" xlink:href="#b"/><linearGradient id="ej" y1="30.58" x2="0.5" y2="31.58" xlink:href="#b"/><linearGradient id="en" y1="30.58" x2="0.5" y2="31.58" xlink:href="#b"/><linearGradient id="eo" y1="60.656" x2="0.5" y2="61.656" xlink:href="#b"/><linearGradient id="er" y1="30.58" x2="0.5" y2="31.58" xlink:href="#b"/><linearGradient id="es" y1="60.656" x2="0.5" y2="61.656" xlink:href="#b"/><linearGradient id="ez" y1="30.58" x2="0.5" y2="31.58" xlink:href="#b"/><linearGradient id="fb" y1="14.564" x2="0.507" y2="15.564" xlink:href="#b"/><linearGradient id="fc" y1="19.215" x2="0.509" y2="20.215" xlink:href="#b"/><linearGradient id="fd" y1="28.578" x2="0.514" y2="29.578" xlink:href="#b"/><linearGradient id="fe" y1="56.656" x2="0.528" y2="57.656" xlink:href="#b"/><linearGradient id="ff" y1="14.564" x2="0.5" y2="15.564" xlink:href="#b"/><linearGradient id="fg" y1="19.22" x2="0.5" y2="20.22" xlink:href="#b"/><linearGradient id="fh" y1="28.578" x2="0.5" y2="29.578" xlink:href="#b"/><linearGradient id="fi" y1="56.656" x2="0.5" y2="57.656" xlink:href="#b"/><linearGradient id="fo" y1="19.215" x2="0.5" y2="20.215" xlink:href="#b"/><linearGradient id="fp" y1="28.578" x2="0.5" y2="29.578" xlink:href="#b"/><linearGradient id="fq" y1="56.656" x2="0.5" y2="57.656" xlink:href="#b"/><linearGradient id="ft" y1="28.578" x2="0.5" y2="29.578" xlink:href="#b"/><linearGradient id="fu" y1="56.656" x2="0.5" y2="57.656" xlink:href="#b"/></defs><g class="b" transform="translate(-12.961)"><g transform="translate(12.961 0)"><g transform="translate(0 0)"><g class="c" transform="translate(0)"><path class="d" d="M121.869,64.071c0-58.364-74.1-58.364-74.1-116.737,0,58.373-74.1,58.356-74.1,116.737s74.1,58.381,74.1,116.737C47.767,122.469,121.869,122.436,121.869,64.071Z" transform="translate(-47.744 -64.071)"/><path class="e" d="M91.4,55.937c0-43.769-55.574-43.769-55.574-87.522,0,43.753-55.574,43.736-55.574,87.522s55.574,43.786,55.574,87.555C35.824,99.739,91.4,99.714,91.4,55.937Z" transform="translate(-35.8 -38.425)"/><path class="f" d="M60.926,46.539c0-29.2-37.046-29.2-37.046-58.389,0,29.19-37.046,29.182-37.046,58.389S23.88,75.713,23.88,104.887C23.88,75.721,60.926,75.7,60.926,46.539Z" transform="translate(-23.857 -14.416)"/><path class="g" d="M30.472,37.082c0-14.571-18.528-14.571-18.528-29.182,0,14.612-18.528,14.612-18.528,29.182s18.528,14.6,18.528,29.19C11.943,51.686,30.472,51.678,30.472,37.082Z" transform="translate(-11.92 9.611)"/><path class="h" d="M174.528,64.071c0-58.364-74.1-58.364-74.1-116.737,0,58.373-74.091,58.356-74.091,116.737s74.091,58.381,74.091,116.737C100.426,122.469,174.528,122.436,174.528,64.071Z" transform="translate(47.79 -64.071)"/><path class="i" d="M144.063,55.955c0-43.769-55.574-43.769-55.574-87.555,0,43.786-55.574,43.769-55.574,87.555S88.49,99.74,88.49,143.51C88.49,99.757,144.063,99.732,144.063,55.955Z" transform="translate(59.727 -38.444)"/><path class="j" d="M113.6,46.53c0-29.182-37.056-29.182-37.056-58.373C76.546,17.331,39.5,17.323,39.5,46.53s37.046,29.19,37.046,58.364C76.546,75.712,113.6,75.7,113.6,46.53Z" transform="translate(71.67 -14.407)"/><path class="k" d="M83.144,37.082C83.144,22.5,64.616,22.5,64.616,7.9c0,14.612-18.539,14.612-18.539,29.182S64.6,51.678,64.6,66.273C64.616,51.686,83.144,51.678,83.144,37.082Z" transform="translate(83.6 9.611)"/><path class="h" d="M227.194,64.071c0-58.364-74.1-58.364-74.1-116.737C153.092,5.707,79,5.69,79,64.071s74.091,58.381,74.091,116.737C153.092,122.469,227.194,122.436,227.194,64.071Z" transform="translate(143.318 -64.071)"/><path class="i" d="M196.729,55.955c0-43.769-55.574-43.769-55.574-87.555,0,43.786-55.574,43.769-55.574,87.555s55.574,43.786,55.574,87.555C141.156,99.757,196.729,99.732,196.729,55.955Z" transform="translate(155.254 -38.444)"/><path class="l" d="M166.289,46.53c0-29.182-37.056-29.182-37.056-58.373,0,29.174-37.077,29.166-37.077,58.373S129.2,75.72,129.2,104.894C129.232,75.712,166.289,75.7,166.289,46.53Z" transform="translate(167.177 -14.407)"/><path class="m" d="M135.8,37.082C135.8,22.5,117.269,22.5,117.269,7.9c0,14.6-18.518,14.587-18.518,29.182s18.518,14.6,18.518,29.19C117.269,51.686,135.8,51.678,135.8,37.082Z" transform="translate(179.141 9.611)"/><path class="h" d="M279.86,64.071c0-58.364-74.091-58.364-74.091-116.737,0,58.373-74.1,58.356-74.1,116.737s74.1,58.381,74.1,116.737C205.769,122.469,279.86,122.436,279.86,64.071Z" transform="translate(238.845 -64.071)"/><path class="i" d="M249.4,55.955c0-43.769-55.574-43.769-55.574-87.555,0,43.786-55.574,43.769-55.574,87.555s55.574,43.786,55.574,87.555C193.825,99.757,249.4,99.732,249.4,55.955Z" transform="translate(250.788 -38.444)"/><path class="l" d="M218.934,46.53c0-29.182-37.046-29.182-37.046-58.373,0,29.19-37.056,29.182-37.056,58.373s37.056,29.19,37.056,58.364C181.889,75.712,218.934,75.7,218.934,46.53Z" transform="translate(262.725 -14.407)"/><path class="k" d="M188.463,37.082c0-14.571-18.518-14.571-18.518-29.182,0,14.612-18.528,14.612-18.528,29.182s18.528,14.6,18.528,29.19C169.945,51.686,188.463,51.678,188.463,37.082Z" transform="translate(274.668 9.611)"/><path class="h" d="M332.537,64.071c0-58.364-74.1-58.364-74.1-116.737,0,58.373-74.1,58.356-74.1,116.737s74.1,58.381,74.1,116.737C258.435,122.469,332.537,122.436,332.537,64.071Z" transform="translate(334.372 -64.071)"/><path class="i" d="M302.065,55.955c0-43.769-55.574-43.769-55.574-87.555,0,43.786-55.574,43.769-55.574,87.555s55.574,43.786,55.574,87.555C246.491,99.757,302.065,99.732,302.065,55.955Z" transform="translate(346.316 -38.444)"/><path class="n" d="M271.594,46.53c0-29.182-37.046-29.182-37.046-58.373,0,29.174-37.046,29.166-37.046,58.373s37.046,29.19,37.046,58.364C234.548,75.712,271.594,75.7,271.594,46.53Z" transform="translate(358.259 -14.407)"/><path class="o" d="M241.139,37.082c0-14.587-18.528-14.587-18.528-29.182,0,14.6-18.528,14.587-18.528,29.182s18.528,14.6,18.528,29.19C222.611,51.686,241.139,51.678,241.139,37.082Z" transform="translate(370.196 9.611)"/><path class="h" d="M385.2,64.071c0-58.364-74.1-58.364-74.1-116.737C311.094,5.707,237,5.69,237,64.071s74.091,58.381,74.091,116.737C311.094,122.469,385.2,122.436,385.2,64.071Z" transform="translate(429.906 -64.071)"/><path class="i" d="M354.731,55.955c0-43.769-55.574-43.769-55.574-87.555,0,43.786-55.574,43.769-55.574,87.555s55.574,43.786,55.574,87.555C299.157,99.757,354.731,99.732,354.731,55.955Z" transform="translate(441.843 -38.444)"/><path class="n" d="M324.26,46.53c0-29.182-37.046-29.182-37.046-58.373,0,29.19-37.046,29.182-37.046,58.373s37.046,29.19,37.046,58.364C287.214,75.712,324.26,75.7,324.26,46.53Z" transform="translate(453.786 -14.407)"/><path class="o" d="M293.805,37.082c0-14.587-18.528-14.587-18.528-29.182,0,14.6-18.528,14.587-18.528,29.182s18.528,14.6,18.528,29.19C275.277,51.686,293.805,51.678,293.805,37.082Z" transform="translate(465.723 9.611)"/><path class="p" d="M148.193,116.737C148.193,58.381,74.1,58.381,74.1,0,74.1,58.381,0,58.364,0,116.737s74.1,58.381,74.1,116.737C74.1,175.135,148.193,175.1,148.193,116.737Z" transform="translate(0.023 0)"/><path class="q" d="M117.725,108.624c0-43.769-55.574-43.769-55.574-87.555,0,43.786-55.574,43.777-55.574,87.555s55.574,43.786,55.574,87.555C62.172,152.418,117.725,152.394,117.725,108.624Z" transform="translate(11.953 25.632)"/><path class="r" d="M87.267,99.189c0-29.182-37.046-29.182-37.046-58.373,0,29.19-37.056,29.182-37.056,58.373s37.056,29.19,37.056,58.365C50.222,128.387,87.267,128.371,87.267,99.189Z" transform="translate(23.903 49.655)"/><path class="s" d="M56.8,89.757c0-14.6-18.518-14.6-18.518-29.191,0,14.6-18.528,14.6-18.528,29.191s18.528,14.6,18.528,29.182C38.278,104.352,56.8,104.344,56.8,89.757Z" transform="translate(35.847 73.682)"/><path class="p" d="M200.859,116.737c0-58.356-74.091-58.356-74.091-116.737,0,58.381-74.1,58.364-74.1,116.737s74.1,58.381,74.1,116.737C126.768,175.135,200.859,175.1,200.859,116.737Z" transform="translate(95.551 0)"/><path class="t" d="M170.4,108.624c0-43.769-55.574-43.769-55.574-87.555,0,43.786-55.574,43.777-55.574,87.555s55.574,43.786,55.574,87.555C114.825,152.418,170.4,152.394,170.4,108.624Z" transform="translate(107.494 25.632)"/><path class="u" d="M139.916,99.189c0-29.182-37.046-29.182-37.046-58.373,0,29.19-37.046,29.182-37.046,58.373s37.046,29.19,37.046,58.365C102.9,128.387,139.916,128.371,139.916,99.189Z" transform="translate(119.417 49.655)"/><path class="s" d="M109.462,89.757c0-14.6-18.518-14.6-18.518-29.191,0,14.6-18.528,14.6-18.528,29.191s18.528,14.6,18.528,29.182C90.944,104.352,109.462,104.344,109.462,89.757Z" transform="translate(131.374 73.682)"/><path class="p" d="M253.536,116.737c0-58.356-74.1-58.356-74.1-116.737,0,58.381-74.1,58.364-74.1,116.737s74.1,58.381,74.1,116.737C179.434,175.135,253.536,175.1,253.536,116.737Z" transform="translate(191.078 0)"/><path class="t" d="M223.064,108.624c0-43.769-55.574-43.769-55.574-87.555,0,43.786-55.574,43.777-55.574,87.555s55.574,43.786,55.574,87.555C167.491,152.418,223.064,152.394,223.064,108.624Z" transform="translate(203.021 25.632)"/><path class="v" d="M192.593,99.189c0-29.182-37.046-29.182-37.046-58.373,0,29.19-37.046,29.182-37.046,58.373s37.046,29.19,37.046,58.365C155.547,128.387,192.593,128.371,192.593,99.189Z" transform="translate(214.965 49.655)"/><path class="w" d="M162.139,89.757c0-14.6-18.528-14.6-18.528-29.191,0,14.6-18.528,14.6-18.528,29.191s18.528,14.6,18.528,29.182C143.61,104.352,162.139,104.344,162.139,89.757Z" transform="translate(226.901 73.682)"/><path class="p" d="M306.2,116.737c0-58.356-74.1-58.356-74.1-116.737C232.093,58.381,158,58.364,158,116.737s74.091,58.381,74.091,116.737C232.093,175.135,306.2,175.1,306.2,116.737Z" transform="translate(286.612 0)"/><path class="t" d="M275.73,108.624c0-43.769-55.574-43.769-55.574-87.555,0,43.786-55.574,43.777-55.574,87.555s55.574,43.786,55.574,87.555C220.157,152.418,275.73,152.394,275.73,108.624Z" transform="translate(298.549 25.632)"/><path class="x" d="M245.269,99.189c0-29.182-37.056-29.182-37.056-58.373,0,29.19-37.046,29.182-37.046,58.373s37.046,29.19,37.046,58.365C208.213,128.387,245.269,128.371,245.269,99.189Z" transform="translate(310.492 49.655)"/><path class="y" d="M214.8,89.757c0-14.6-18.528-14.6-18.528-29.191,0,14.6-18.518,14.6-18.518,29.191s18.518,14.6,18.518,29.182C196.27,104.352,214.8,104.344,214.8,89.757Z" transform="translate(322.435 73.682)"/><path class="p" d="M358.861,116.737C358.861,58.381,284.77,58.381,284.77,0c0,58.381-74.1,58.364-74.1,116.737s74.1,58.381,74.1,116.737C284.77,175.135,358.861,175.1,358.861,116.737Z" transform="translate(382.139 0)"/><path class="t" d="M328.39,108.624c0-43.769-55.563-43.769-55.563-87.555,0,43.786-55.574,43.777-55.574,87.555s55.574,43.786,55.574,87.555C272.826,152.418,328.39,152.394,328.39,108.624Z" transform="translate(394.083 25.632)"/><path class="r" d="M297.935,99.189c0-29.182-37.046-29.182-37.046-58.373,0,29.19-37.056,29.182-37.056,58.373s37.056,29.19,37.056,58.365C260.89,128.387,297.935,128.371,297.935,99.189Z" transform="translate(406.019 49.655)"/><path class="s" d="M267.464,89.757c0-14.6-18.518-14.6-18.518-29.191,0,14.6-18.528,14.6-18.528,29.191s18.528,14.6,18.528,29.182C248.946,104.352,267.464,104.344,267.464,89.757Z" transform="translate(417.963 73.682)"/><path class="p" d="M411.527,116.737c0-58.356-74.091-58.356-74.091-116.737,0,58.381-74.1,58.364-74.1,116.737s74.1,58.381,74.1,116.737C337.436,175.135,411.527,175.1,411.527,116.737Z" transform="translate(477.666 0)"/><path class="t" d="M381.066,108.624c0-43.769-55.574-43.769-55.574-87.555,0,43.786-55.574,43.777-55.574,87.555s55.574,43.786,55.574,87.555C325.492,152.418,381.066,152.394,381.066,108.624Z" transform="translate(489.61 25.632)"/><path class="z" d="M350.616,99.189c0-29.182-37.046-29.182-37.046-58.373,0,29.19-37.056,29.182-37.056,58.373s37.056,29.19,37.056,58.365C313.529,128.387,350.616,128.371,350.616,99.189Z" transform="translate(501.573 49.655)"/><path class="s" d="M320.13,89.757c0-14.6-18.518-14.6-18.518-29.191,0,14.6-18.528,14.6-18.528,29.191s18.528,14.6,18.528,29.182C301.612,104.352,320.13,104.344,320.13,89.757Z" transform="translate(513.49 73.682)"/><path class="aa" d="M121.869,169.4c0-58.356-74.1-58.356-74.1-116.737,0,58.381-74.1,58.364-74.1,116.737s74.1,58.389,74.1,116.745C47.767,227.809,121.869,227.776,121.869,169.4Z" transform="translate(-47.744 64.071)"/><path class="ab" d="M91.4,161.282c0-43.769-55.574-43.769-55.574-87.547,0,43.777-55.574,43.769-55.574,87.547s55.574,43.794,55.574,87.538C35.824,205.084,91.4,205.06,91.4,161.282Z" transform="translate(-35.8 89.703)"/><path class="ac" d="M60.926,151.855c0-29.19-37.046-29.19-37.046-58.373,0,29.182-37.046,29.182-37.046,58.373s37.046,29.19,37.046,58.373C23.88,181.053,60.926,181.037,60.926,151.855Z" transform="translate(-23.857 113.726)"/><path class="ad" d="M30.472,142.423c0-14.6-18.528-14.6-18.528-29.19,0,14.6-18.528,14.6-18.528,29.19s18.528,14.6,18.528,29.182C11.943,157.018,30.472,157.01,30.472,142.423Z" transform="translate(-11.92 137.753)"/><path class="ae" d="M174.528,169.4c0-58.356-74.1-58.356-74.1-116.737,0,58.381-74.091,58.364-74.091,116.737s74.091,58.389,74.091,116.745C100.426,227.809,174.528,227.776,174.528,169.4Z" transform="translate(47.79 64.071)"/><path class="af" d="M144.063,161.282c0-43.769-55.574-43.769-55.574-87.547,0,43.777-55.574,43.769-55.574,87.547S88.49,205.076,88.49,248.837C88.49,205.084,144.063,205.06,144.063,161.282Z" transform="translate(59.727 89.703)"/><path class="ag" d="M113.6,151.855c0-29.182-37.056-29.182-37.056-58.373,0,29.19-37.046,29.182-37.046,58.373s37.046,29.19,37.046,58.373C76.546,181.053,113.6,181.037,113.6,151.855Z" transform="translate(71.67 113.726)"/><path class="ah" d="M83.131,142.423c0-14.6-18.528-14.6-18.528-29.19,0,14.6-18.518,14.6-18.518,29.19S64.6,157.018,64.6,171.6C64.6,157.018,83.131,157.01,83.131,142.423Z" transform="translate(83.614 137.753)"/><path class="ae" d="M227.194,169.4c0-58.356-74.1-58.356-74.1-116.737C153.092,111.047,79,111.031,79,169.4s74.091,58.389,74.091,116.745C153.092,227.809,227.194,227.776,227.194,169.4Z" transform="translate(143.318 64.071)"/><path class="af" d="M196.729,161.282c0-43.769-55.574-43.769-55.574-87.547,0,43.777-55.574,43.769-55.574,87.547s55.574,43.794,55.574,87.555C141.156,205.084,196.729,205.06,196.729,161.282Z" transform="translate(155.254 89.703)"/><path class="ai" d="M166.289,151.855c0-29.182-37.056-29.182-37.056-58.373,0,29.182-37.077,29.182-37.077,58.373s37.046,29.19,37.046,58.373C129.232,181.053,166.289,181.037,166.289,151.855Z" transform="translate(167.177 113.726)"/><path class="ah" d="M135.8,142.423c0-14.6-18.528-14.6-18.528-29.19,0,14.6-18.518,14.6-18.518,29.19s18.518,14.6,18.518,29.182C117.269,157.018,135.8,157.01,135.8,142.423Z" transform="translate(179.141 137.753)"/><path class="ae" d="M279.86,169.4c0-58.356-74.091-58.356-74.091-116.737,0,58.381-74.1,58.364-74.1,116.737s74.1,58.389,74.1,116.745C205.769,227.809,279.86,227.776,279.86,169.4Z" transform="translate(238.845 64.071)"/><path class="aj" d="M249.4,161.282c0-43.769-55.574-43.769-55.574-87.547,0,43.777-55.574,43.769-55.574,87.547s55.574,43.794,55.574,87.538C193.825,205.084,249.4,205.06,249.4,161.282Z" transform="translate(250.788 89.703)"/><path class="ai" d="M218.934,151.855c0-29.182-37.046-29.182-37.046-58.373,0,29.19-37.056,29.182-37.056,58.373s37.056,29.19,37.056,58.373C181.889,181.053,218.934,181.037,218.934,151.855Z" transform="translate(262.725 113.726)"/><path class="ak" d="M188.463,142.423c0-14.6-18.518-14.6-18.518-29.19,0,14.6-18.528,14.6-18.528,29.19s18.528,14.6,18.528,29.182C169.945,157.018,188.463,157.01,188.463,142.423Z" transform="translate(274.668 137.753)"/><path class="ae" d="M332.537,169.4c0-58.356-74.1-58.356-74.1-116.737,0,58.381-74.1,58.364-74.1,116.737s74.1,58.389,74.1,116.745C258.435,227.809,332.537,227.776,332.537,169.4Z" transform="translate(334.372 64.071)"/><path class="af" d="M302.065,161.282c0-43.769-55.574-43.769-55.574-87.547,0,43.777-55.574,43.769-55.574,87.547s55.574,43.794,55.574,87.555C246.491,205.084,302.065,205.06,302.065,161.282Z" transform="translate(346.316 89.703)"/><path class="al" d="M271.594,151.855c0-29.182-37.046-29.182-37.046-58.373,0,29.19-37.046,29.182-37.046,58.373s37.046,29.19,37.046,58.373C234.548,181.053,271.594,181.037,271.594,151.855Z" transform="translate(358.259 113.726)"/><path class="am" d="M241.139,142.423c0-14.6-18.528-14.6-18.528-29.19,0,14.6-18.528,14.6-18.528,29.19s18.528,14.6,18.528,29.182C222.611,157.018,241.139,157.01,241.139,142.423Z" transform="translate(370.196 137.753)"/><path class="ae" d="M385.2,169.4c0-58.356-74.1-58.356-74.1-116.737C311.094,111.047,237,111.031,237,169.4s74.091,58.389,74.091,116.745C311.094,227.809,385.2,227.776,385.2,169.4Z" transform="translate(429.906 64.071)"/><path class="af" d="M354.731,161.282c0-43.769-55.574-43.769-55.574-87.547,0,43.777-55.574,43.769-55.574,87.547s55.574,43.794,55.574,87.555C299.157,205.084,354.731,205.06,354.731,161.282Z" transform="translate(441.843 89.703)"/><path class="al" d="M324.26,151.855c0-29.182-37.046-29.182-37.046-58.373,0,29.19-37.046,29.182-37.046,58.373s37.046,29.19,37.046,58.373C287.214,181.053,324.26,181.037,324.26,151.855Z" transform="translate(453.786 113.726)"/><path class="am" d="M293.805,142.423c0-14.6-18.528-14.6-18.528-29.19,0,14.6-18.528,14.6-18.528,29.19s18.528,14.6,18.528,29.182C275.277,157.018,293.805,157.01,293.805,142.423Z" transform="translate(465.723 137.753)"/><path class="an" d="M148.193,222.078c0-58.364-74.091-58.364-74.091-116.745C74.1,163.713,0,163.7,0,222.078s74.1,58.381,74.1,116.737C74.1,280.475,148.193,280.442,148.193,222.078Z" transform="translate(0.023 128.142)"/><path class="ao" d="M117.725,213.956c0-43.778-55.574-43.778-55.574-87.555,0,43.777-55.574,43.769-55.574,87.555s55.574,43.786,55.574,87.555C62.172,257.75,117.725,257.726,117.725,213.956Z" transform="translate(11.953 153.774)"/><path class="ap" d="M87.267,204.516c0-29.174-37.046-29.174-37.046-58.365,0,29.191-37.056,29.182-37.056,58.365s37.056,29.19,37.056,58.34C50.222,233.715,87.267,233.7,87.267,204.516Z" transform="translate(23.903 177.802)"/><path class="aq" d="M56.8,195.084C56.8,180.5,38.278,180.5,38.278,165.9c0,14.6-18.528,14.587-18.528,29.182s18.528,14.6,18.528,29.182C38.278,209.688,56.8,209.679,56.8,195.084Z" transform="translate(35.847 201.829)"/><path class="an" d="M200.859,222.078c0-58.364-74.091-58.364-74.091-116.745,0,58.381-74.1,58.364-74.1,116.745s74.1,58.381,74.1,116.737C126.768,280.475,200.859,280.442,200.859,222.078Z" transform="translate(95.551 128.142)"/><path class="ar" d="M170.4,213.956c0-43.778-55.574-43.778-55.574-87.555,0,43.777-55.574,43.769-55.574,87.555s55.574,43.786,55.574,87.555C114.825,257.75,170.4,257.726,170.4,213.956Z" transform="translate(107.494 153.774)"/><path class="as" d="M139.916,204.516c0-29.174-37.046-29.174-37.046-58.365,0,29.191-37.046,29.182-37.046,58.365s37.077,29.19,37.077,58.34C102.9,233.715,139.916,233.7,139.916,204.516Z" transform="translate(119.417 177.802)"/><path class="aq" d="M109.462,195.084c0-14.587-18.518-14.587-18.518-29.182,0,14.6-18.528,14.587-18.528,29.182s18.528,14.6,18.528,29.182C90.944,209.688,109.462,209.679,109.462,195.084Z" transform="translate(131.374 201.829)"/><path class="an" d="M253.536,222.078c0-58.364-74.1-58.364-74.1-116.745,0,58.381-74.1,58.364-74.1,116.745s74.1,58.381,74.1,116.737C179.434,280.475,253.536,280.442,253.536,222.078Z" transform="translate(191.078 128.142)"/><path class="ar" d="M223.064,213.956c0-43.778-55.574-43.778-55.574-87.555,0,43.777-55.574,43.769-55.574,87.555s55.574,43.786,55.574,87.555C167.491,257.75,223.064,257.726,223.064,213.956Z" transform="translate(203.021 153.774)"/><path class="at" d="M192.593,204.516c0-29.174-37.046-29.174-37.046-58.365,0,29.191-37.046,29.182-37.046,58.365s37.046,29.19,37.046,58.373C155.547,233.715,192.593,233.7,192.593,204.516Z" transform="translate(214.965 177.802)"/><path class="au" d="M162.139,195.084c0-14.587-18.528-14.587-18.528-29.182,0,14.6-18.528,14.587-18.528,29.182s18.528,14.6,18.528,29.182C143.61,209.688,162.139,209.679,162.139,195.084Z" transform="translate(226.901 201.829)"/><path class="an" d="M306.2,222.078c0-58.364-74.1-58.364-74.1-116.745C232.093,163.713,158,163.7,158,222.078s74.091,58.381,74.091,116.737C232.093,280.475,306.2,280.442,306.2,222.078Z" transform="translate(286.612 128.142)"/><path class="ar" d="M275.73,213.956c0-43.778-55.574-43.778-55.574-87.555,0,43.777-55.574,43.769-55.574,87.555s55.574,43.786,55.574,87.555C220.157,257.75,275.73,257.726,275.73,213.956Z" transform="translate(298.549 153.774)"/><path class="av" d="M245.269,204.516c0-29.174-37.056-29.174-37.056-58.365,0,29.191-37.046,29.182-37.046,58.365s37.046,29.19,37.046,58.373C208.213,233.715,245.269,233.7,245.269,204.516Z" transform="translate(310.492 177.802)"/><path class="aw" d="M214.8,195.084c0-14.587-18.528-14.587-18.528-29.182,0,14.6-18.518,14.587-18.518,29.182s18.518,14.6,18.518,29.182C196.27,209.688,214.8,209.679,214.8,195.084Z" transform="translate(322.435 201.829)"/><path class="an" d="M358.861,222.078c0-58.364-74.091-58.364-74.091-116.745,0,58.381-74.1,58.364-74.1,116.745s74.1,58.381,74.1,116.737C284.77,280.475,358.861,280.442,358.861,222.078Z" transform="translate(382.139 128.142)"/><path class="ar" d="M328.39,213.956c0-43.778-55.563-43.778-55.563-87.555,0,43.777-55.574,43.769-55.574,87.555s55.574,43.786,55.574,87.555C272.826,257.75,328.39,257.726,328.39,213.956Z" transform="translate(394.083 153.774)"/><path class="ap" d="M297.935,204.516c0-29.174-37.046-29.174-37.046-58.365,0,29.191-37.056,29.182-37.056,58.365s37.056,29.19,37.056,58.34C260.89,233.715,297.935,233.7,297.935,204.516Z" transform="translate(406.019 177.802)"/><path class="aq" d="M267.464,195.084c0-14.587-18.518-14.587-18.518-29.182,0,14.6-18.528,14.587-18.528,29.182s18.528,14.6,18.528,29.182C248.946,209.688,267.464,209.679,267.464,195.084Z" transform="translate(417.963 201.829)"/><path class="an" d="M411.527,222.078c0-58.364-74.091-58.364-74.091-116.745,0,58.381-74.1,58.364-74.1,116.745s74.1,58.381,74.1,116.737C337.436,280.475,411.527,280.442,411.527,222.078Z" transform="translate(477.666 128.142)"/><path class="ar" d="M381.066,213.956c0-43.778-55.574-43.778-55.574-87.555,0,43.777-55.574,43.769-55.574,87.555s55.574,43.786,55.574,87.555C325.492,257.75,381.066,257.726,381.066,213.956Z" transform="translate(489.61 153.774)"/><path class="ax" d="M350.616,204.516c0-29.174-37.046-29.174-37.046-58.365,0,29.191-37.056,29.182-37.056,58.365s37.056,29.19,37.056,58.373C313.529,233.715,350.616,233.7,350.616,204.516Z" transform="translate(501.573 177.802)"/><path class="aq" d="M320.13,195.084c0-14.587-18.518-14.587-18.518-29.182,0,14.6-18.528,14.587-18.528,29.182s18.528,14.6,18.528,29.182C301.612,209.688,320.13,209.679,320.13,195.084Z" transform="translate(513.49 201.829)"/><path class="ay" d="M121.869,274.739c0-58.364-74.1-58.364-74.1-116.737,0,58.373-74.1,58.356-74.1,116.737s74.1,58.381,74.1,116.737C47.767,333.137,121.869,333.1,121.869,274.739Z" transform="translate(-47.744 192.218)"/><path class="az" d="M91.4,266.622c0-43.769-55.574-43.769-55.574-87.555,0,43.786-55.574,43.744-55.574,87.555s55.574,43.786,55.574,87.555C35.824,310.425,91.4,310.4,91.4,266.622Z" transform="translate(-35.8 217.846)"/><path class="ba" d="M60.926,257.209c0-29.182-37.046-29.182-37.046-58.406,0,29.191-37.046,29.182-37.046,58.373S23.88,286.4,23.88,315.573C23.88,286.407,60.926,286.391,60.926,257.209Z" transform="translate(-23.857 241.855)"/><path class="bb" d="M30.472,247.75c0-14.587-18.528-14.587-18.528-29.182,0,14.6-18.528,14.587-18.528,29.182s18.528,14.6,18.528,29.19C11.943,262.354,30.472,262.345,30.472,247.75Z" transform="translate(-11.92 265.9)"/><path class="bc" d="M174.528,274.739c0-58.364-74.1-58.364-74.1-116.737,0,58.373-74.091,58.356-74.091,116.737s74.091,58.381,74.091,116.737C100.426,333.137,174.528,333.1,174.528,274.739Z" transform="translate(47.79 192.218)"/><path class="bd" d="M144.063,266.622c0-43.769-55.574-43.769-55.574-87.555,0,43.786-55.574,43.769-55.574,87.555S88.49,310.408,88.49,354.177C88.49,310.425,144.063,310.4,144.063,266.622Z" transform="translate(59.727 217.846)"/><path class="be" d="M113.6,257.19c0-29.182-37.056-29.182-37.056-58.373C76.546,228.008,39.5,228,39.5,257.19s37.046,29.19,37.046,58.364C76.546,286.389,113.6,286.373,113.6,257.19Z" transform="translate(71.67 241.873)"/><path class="bf" d="M83.131,247.75c0-14.587-18.528-14.587-18.528-29.182,0,14.6-18.518,14.587-18.518,29.182s18.518,14.6,18.518,29.19C64.6,262.354,83.131,262.345,83.131,247.75Z" transform="translate(83.614 265.9)"/><path class="bc" d="M227.194,274.739c0-58.364-74.1-58.364-74.1-116.737C153.092,216.375,79,216.358,79,274.739s74.091,58.381,74.091,116.737C153.092,333.137,227.194,333.1,227.194,274.739Z" transform="translate(143.318 192.218)"/><path class="bd" d="M196.729,266.622c0-43.769-55.574-43.769-55.574-87.555,0,43.786-55.574,43.769-55.574,87.555s55.574,43.786,55.574,87.555C141.156,310.425,196.729,310.4,196.729,266.622Z" transform="translate(155.254 217.846)"/><path class="be" d="M166.268,257.19c0-29.182-37.056-29.182-37.056-58.373,0,29.19-37.046,29.182-37.046,58.373s37.046,29.19,37.046,58.364C129.212,286.389,166.268,286.373,166.268,257.19Z" transform="translate(167.198 241.873)"/><path class="bf" d="M135.8,247.75c0-14.587-18.528-14.587-18.528-29.182,0,14.6-18.518,14.587-18.518,29.182s18.518,14.6,18.518,29.19C117.269,262.354,135.8,262.345,135.8,247.75Z" transform="translate(179.141 265.9)"/><path class="bc" d="M279.86,274.739c0-58.364-74.091-58.364-74.091-116.737,0,58.373-74.1,58.356-74.1,116.737s74.1,58.381,74.1,116.737C205.769,333.137,279.86,333.1,279.86,274.739Z" transform="translate(238.845 192.218)"/><path class="bd" d="M249.4,266.622c0-43.769-55.574-43.769-55.574-87.555,0,43.786-55.574,43.769-55.574,87.555s55.574,43.786,55.574,87.555C193.825,310.425,249.4,310.4,249.4,266.622Z" transform="translate(250.788 217.846)"/><path class="bg" d="M218.934,257.19c0-29.182-37.046-29.182-37.046-58.373,0,29.19-37.056,29.182-37.056,58.373s37.056,29.19,37.056,58.364C181.889,286.389,218.934,286.373,218.934,257.19Z" transform="translate(262.725 241.873)"/><path class="bh" d="M188.463,247.75c0-14.587-18.518-14.587-18.518-29.182,0,14.6-18.528,14.587-18.528,29.182s18.528,14.6,18.528,29.19C169.945,262.354,188.463,262.345,188.463,247.75Z" transform="translate(274.668 265.9)"/><path class="bc" d="M332.537,274.739c0-58.364-74.1-58.364-74.1-116.737,0,58.373-74.1,58.356-74.1,116.737s74.1,58.381,74.1,116.737C258.435,333.137,332.537,333.1,332.537,274.739Z" transform="translate(334.372 192.218)"/><path class="bd" d="M302.065,266.622c0-43.769-55.574-43.769-55.574-87.555,0,43.786-55.574,43.769-55.574,87.555s55.574,43.786,55.574,87.555C246.491,310.425,302.065,310.4,302.065,266.622Z" transform="translate(346.316 217.846)"/><path class="bi" d="M271.594,257.19c0-29.182-37.046-29.182-37.046-58.373,0,29.19-37.046,29.182-37.046,58.373s37.046,29.19,37.046,58.364C234.548,286.389,271.594,286.373,271.594,257.19Z" transform="translate(358.259 241.873)"/><path class="bj" d="M241.139,247.75c0-14.587-18.528-14.587-18.528-29.182,0,14.6-18.528,14.587-18.528,29.182s18.528,14.6,18.528,29.19C222.611,262.354,241.139,262.345,241.139,247.75Z" transform="translate(370.196 265.9)"/><path class="bc" d="M385.2,274.739c0-58.364-74.1-58.364-74.1-116.737,0,58.373-74.091,58.356-74.091,116.737s74.091,58.381,74.091,116.737C311.094,333.137,385.2,333.1,385.2,274.739Z" transform="translate(429.906 192.218)"/><path class="bd" d="M354.731,266.622c0-43.769-55.574-43.769-55.574-87.555,0,43.786-55.574,43.769-55.574,87.555s55.574,43.786,55.574,87.555C299.157,310.425,354.731,310.4,354.731,266.622Z" transform="translate(441.843 217.846)"/><path class="bi" d="M324.26,257.19c0-29.182-37.046-29.182-37.046-58.373,0,29.19-37.046,29.182-37.046,58.373s37.046,29.19,37.046,58.364C287.214,286.389,324.26,286.373,324.26,257.19Z" transform="translate(453.786 241.873)"/><path class="bj" d="M293.805,247.75c0-14.587-18.528-14.587-18.528-29.182,0,14.6-18.528,14.587-18.528,29.182s18.528,14.6,18.528,29.19C275.277,262.354,293.805,262.345,293.805,247.75Z" transform="translate(465.723 265.9)"/><path class="bk" d="M148.193,327.405c0-58.356-74.091-58.356-74.091-116.737C74.1,269.049,0,269.032,0,327.405s74.1,58.381,74.1,116.737C74.1,385.8,148.193,385.77,148.193,327.405Z" transform="translate(0.023 256.289)"/><path class="bl" d="M117.725,319.289c0-43.769-55.574-43.769-55.574-87.555,0,43.786-55.574,43.769-55.574,87.555s55.574,43.786,55.574,87.555C62.172,363.091,117.725,363.066,117.725,319.289Z" transform="translate(11.953 281.917)"/><path class="bm" d="M87.267,309.856c0-29.182-37.046-29.182-37.046-58.373,0,29.19-37.056,29.182-37.056,58.373s37.056,29.19,37.056,58.365C50.222,339.055,87.267,339.039,87.267,309.856Z" transform="translate(23.903 305.944)"/><path class="bn" d="M56.8,300.416c0-14.587-18.518-14.587-18.518-29.182,0,14.6-18.528,14.6-18.528,29.182s18.528,14.6,18.528,29.19C38.278,315.02,56.8,315.012,56.8,300.416Z" transform="translate(35.847 329.971)"/><path class="h" d="M437.862,64.071c0-58.364-74.1-58.364-74.1-116.737,0,58.373-74.091,58.356-74.091,116.737s74.091,58.381,74.091,116.737C363.76,122.469,437.862,122.436,437.862,64.071Z" transform="translate(525.434 -64.071)"/><path class="i" d="M407.4,55.955c0-43.769-55.574-43.769-55.574-87.555,0,43.786-55.574,43.769-55.574,87.555s55.574,43.786,55.574,87.555C351.824,99.757,407.4,99.732,407.4,55.955Z" transform="translate(537.37 -38.444)"/><path class="bo" d="M376.909,46.53c0-29.182-37.056-29.182-37.056-58.373,0,29.174-37,29.166-37,58.373s37.046,29.19,37.046,58.364C339.853,75.712,376.909,75.7,376.909,46.53Z" transform="translate(549.341 -14.407)"/><path class="m" d="M346.465,37.082c0-14.587-18.528-14.587-18.528-29.182,0,14.6-18.518,14.587-18.518,29.182s18.518,14.6,18.518,29.19C327.937,51.686,346.465,51.678,346.465,37.082Z" transform="translate(561.257 9.611)"/><path class="ae" d="M437.862,169.4c0-58.356-74.1-58.356-74.1-116.737,0,58.381-74.091,58.364-74.091,116.737s74.091,58.389,74.091,116.745C363.76,227.809,437.862,227.776,437.862,169.4Z" transform="translate(525.434 64.071)"/><path class="af" d="M407.4,161.282c0-43.769-55.574-43.769-55.574-87.547,0,43.777-55.574,43.769-55.574,87.547s55.574,43.794,55.574,87.555C351.824,205.084,407.4,205.06,407.4,161.282Z" transform="translate(537.37 89.703)"/><path class="bp" d="M376.909,151.855c0-29.182-37.056-29.182-37.056-58.373,0,29.182-37,29.182-37,58.373s37.046,29.19,37.046,58.373C339.853,181.053,376.909,181.037,376.909,151.855Z" transform="translate(549.341 113.726)"/><path class="ah" d="M346.465,142.423c0-14.6-18.528-14.6-18.528-29.19,0,14.6-18.518,14.6-18.518,29.19s18.518,14.6,18.518,29.182C327.937,157.018,346.465,157.01,346.465,142.423Z" transform="translate(561.257 137.753)"/><path class="bc" d="M437.862,274.739c0-58.364-74.1-58.364-74.1-116.737,0,58.373-74.091,58.356-74.091,116.737S363.76,333.12,363.76,391.476C363.76,333.137,437.862,333.1,437.862,274.739Z" transform="translate(525.434 192.218)"/><path class="bd" d="M407.4,266.622c0-43.769-55.574-43.769-55.574-87.555,0,43.786-55.574,43.769-55.574,87.555s55.574,43.786,55.574,87.555C351.824,310.425,407.4,310.4,407.4,266.622Z" transform="translate(537.37 217.846)"/><path class="be" d="M376.936,257.19c0-29.182-37.056-29.182-37.056-58.373,0,29.19-37.046,29.182-37.046,58.373s37.046,29.19,37.046,58.364C339.88,286.389,376.936,286.373,376.936,257.19Z" transform="translate(549.313 241.873)"/><path class="bf" d="M346.465,247.75c0-14.587-18.528-14.587-18.528-29.182,0,14.6-18.518,14.587-18.518,29.182s18.518,14.6,18.518,29.19C327.937,262.354,346.465,262.345,346.465,247.75Z" transform="translate(561.257 265.9)"/><path class="bk" d="M200.859,327.405c0-58.356-74.091-58.356-74.091-116.737,0,58.381-74.1,58.365-74.1,116.737s74.1,58.381,74.1,116.737C126.768,385.8,200.859,385.77,200.859,327.405Z" transform="translate(95.551 256.289)"/><path class="bq" d="M170.4,319.289c0-43.769-55.574-43.769-55.574-87.555,0,43.786-55.574,43.769-55.574,87.555s55.574,43.786,55.574,87.555C114.825,363.091,170.4,363.066,170.4,319.289Z" transform="translate(107.494 281.917)"/><path class="br" d="M139.916,309.856c0-29.182-37.046-29.182-37.046-58.373,0,29.19-37.046,29.182-37.046,58.373s37.046,29.19,37.046,58.365C102.9,339.055,139.916,339.039,139.916,309.856Z" transform="translate(119.417 305.944)"/><path class="bn" d="M109.462,300.416c0-14.587-18.518-14.587-18.518-29.182,0,14.6-18.528,14.6-18.528,29.182s18.528,14.6,18.528,29.19C90.944,315.02,109.462,315.012,109.462,300.416Z" transform="translate(131.374 329.971)"/><path class="bk" d="M253.536,327.405c0-58.356-74.1-58.356-74.1-116.737,0,58.381-74.1,58.365-74.1,116.737s74.1,58.381,74.1,116.737C179.434,385.8,253.536,385.77,253.536,327.405Z" transform="translate(191.078 256.289)"/><path class="bq" d="M223.064,319.289c0-43.769-55.574-43.769-55.574-87.555,0,43.786-55.574,43.769-55.574,87.555s55.574,43.786,55.574,87.555C167.491,363.091,223.064,363.066,223.064,319.289Z" transform="translate(203.021 281.917)"/><path class="bs" d="M192.593,309.856c0-29.182-37.046-29.182-37.046-58.373,0,29.19-37.046,29.182-37.046,58.373s37.046,29.19,37.046,58.365C155.547,339.055,192.593,339.039,192.593,309.856Z" transform="translate(214.965 305.944)"/><path class="bt" d="M162.139,300.416c0-14.587-18.528-14.587-18.528-29.182,0,14.6-18.528,14.6-18.528,29.182s18.528,14.6,18.528,29.19C143.61,315.02,162.139,315.012,162.139,300.416Z" transform="translate(226.901 329.971)"/><path class="bk" d="M306.2,327.405c0-58.356-74.1-58.356-74.1-116.737,0,58.381-74.091,58.365-74.091,116.737s74.091,58.381,74.091,116.737C232.093,385.8,306.2,385.77,306.2,327.405Z" transform="translate(286.612 256.289)"/><path class="bq" d="M275.73,319.289c0-43.769-55.574-43.769-55.574-87.555,0,43.786-55.574,43.769-55.574,87.555s55.574,43.786,55.574,87.555C220.157,363.091,275.73,363.066,275.73,319.289Z" transform="translate(298.549 281.917)"/><path class="bu" d="M245.269,309.856c0-29.182-37.056-29.182-37.056-58.373,0,29.19-37.046,29.182-37.046,58.373s37.046,29.19,37.046,58.365C208.213,339.055,245.269,339.039,245.269,309.856Z" transform="translate(310.492 305.944)"/><path class="bv" d="M214.8,300.416c0-14.587-18.528-14.587-18.528-29.182,0,14.6-18.518,14.6-18.518,29.182s18.518,14.6,18.518,29.19C196.27,315.02,214.8,315.012,214.8,300.416Z" transform="translate(322.435 329.971)"/><path class="bk" d="M358.861,327.405c0-58.356-74.091-58.356-74.091-116.737,0,58.381-74.1,58.365-74.1,116.737s74.1,58.381,74.1,116.737C284.77,385.8,358.861,385.77,358.861,327.405Z" transform="translate(382.139 256.289)"/><path class="bq" d="M328.39,319.289c0-43.769-55.563-43.769-55.563-87.555,0,43.786-55.574,43.769-55.574,87.555s55.574,43.786,55.574,87.555C272.826,363.091,328.39,363.066,328.39,319.289Z" transform="translate(394.083 281.917)"/><path class="bm" d="M297.935,309.856c0-29.182-37.046-29.182-37.046-58.373,0,29.19-37.056,29.182-37.056,58.373s37.056,29.19,37.056,58.365C260.89,339.055,297.935,339.039,297.935,309.856Z" transform="translate(406.019 305.944)"/><path class="bn" d="M267.464,300.416c0-14.587-18.518-14.587-18.518-29.182,0,14.6-18.528,14.6-18.528,29.182s18.528,14.6,18.528,29.19C248.946,315.02,267.464,315.012,267.464,300.416Z" transform="translate(417.963 329.971)"/><path class="bk" d="M411.527,327.405c0-58.356-74.091-58.356-74.091-116.737,0,58.381-74.1,58.365-74.1,116.737s74.1,58.381,74.1,116.737C337.436,385.8,411.527,385.77,411.527,327.405Z" transform="translate(477.666 256.289)"/><path class="bq" d="M381.066,319.289c0-43.769-55.574-43.769-55.574-87.555,0,43.786-55.574,43.769-55.574,87.555s55.574,43.786,55.574,87.555C325.492,363.091,381.066,363.066,381.066,319.289Z" transform="translate(489.61 281.917)"/><path class="bw" d="M350.616,309.856c0-29.182-37.046-29.182-37.046-58.373,0,29.19-37.056,29.182-37.056,58.373s37.056,29.19,37.056,58.365C313.529,339.055,350.616,339.039,350.616,309.856Z" transform="translate(501.573 305.944)"/><path class="bn" d="M320.13,300.416c0-14.587-18.518-14.587-18.518-29.182,0,14.6-18.528,14.6-18.528,29.182s18.528,14.6,18.528,29.19C301.612,315.02,320.13,315.012,320.13,300.416Z" transform="translate(513.49 329.971)"/><path class="bx" d="M121.869,380.071c0-58.356-74.1-58.356-74.1-116.737,0,58.381-74.1,58.365-74.1,116.737s74.1,58.389,74.1,116.746C47.767,438.477,121.869,438.444,121.869,380.071Z" transform="translate(-47.744 320.36)"/><path class="by" d="M91.4,371.955c0-43.769-55.574-43.769-55.574-87.555,0,43.786-55.574,43.778-55.574,87.555s55.574,43.794,55.574,87.6C35.824,415.757,91.4,415.732,91.4,371.955Z" transform="translate(-35.8 345.988)"/><path class="bz" d="M60.926,362.523c0-29.182-37.046-29.182-37.046-58.373,0,29.19-37.046,29.182-37.046,58.373S23.88,391.713,23.88,420.9C23.88,391.721,60.926,391.7,60.926,362.523Z" transform="translate(-23.857 370.015)"/><path class="ca" d="M30.472,353.091c0-14.6-18.528-14.6-18.528-29.19,0,14.6-18.528,14.6-18.528,29.19s18.528,14.6,18.528,29.182C11.943,367.686,30.472,367.677,30.472,353.091Z" transform="translate(-11.92 394.042)"/><path class="cb" d="M174.528,380.071c0-58.356-74.1-58.356-74.1-116.737,0,58.381-74.091,58.364-74.091,116.737s74.091,58.389,74.091,116.745C100.426,438.477,174.528,438.444,174.528,380.071Z" transform="translate(47.79 320.36)"/><path class="cc" d="M144.063,371.955c0-43.769-55.574-43.769-55.574-87.555,0,43.786-55.574,43.778-55.574,87.555S88.49,415.749,88.49,459.51C88.49,415.757,144.063,415.732,144.063,371.955Z" transform="translate(59.727 345.988)"/><path class="cd" d="M113.6,362.523c0-29.182-37.056-29.182-37.056-58.373,0,29.19-37.046,29.182-37.046,58.373s37.046,29.19,37.046,58.373C76.546,391.721,113.6,391.7,113.6,362.523Z" transform="translate(71.67 370.015)"/><path class="ce" d="M83.131,353.091c0-14.6-18.528-14.6-18.528-29.19,0,14.6-18.518,14.6-18.518,29.19S64.6,367.686,64.6,382.273C64.6,367.686,83.131,367.677,83.131,353.091Z" transform="translate(83.614 394.042)"/><path class="cb" d="M227.194,380.071c0-58.356-74.1-58.356-74.1-116.737C153.092,321.715,79,321.7,79,380.071s74.091,58.389,74.091,116.745C153.092,438.477,227.194,438.444,227.194,380.071Z" transform="translate(143.318 320.36)"/><path class="cc" d="M196.729,371.955c0-43.769-55.574-43.769-55.574-87.555,0,43.786-55.574,43.778-55.574,87.555s55.574,43.794,55.574,87.555C141.156,415.757,196.729,415.732,196.729,371.955Z" transform="translate(155.254 345.988)"/><path class="cd" d="M166.268,362.523c0-29.182-37.056-29.182-37.056-58.373,0,29.19-37.046,29.182-37.046,58.373s37.046,29.19,37.046,58.373C129.212,391.721,166.268,391.7,166.268,362.523Z" transform="translate(167.198 370.015)"/><path class="ce" d="M135.8,353.091c0-14.6-18.528-14.6-18.528-29.19,0,14.6-18.518,14.6-18.518,29.19s18.518,14.6,18.518,29.182C117.269,367.686,135.8,367.677,135.8,353.091Z" transform="translate(179.141 394.042)"/><path class="cb" d="M279.86,380.071c0-58.356-74.091-58.356-74.091-116.737,0,58.381-74.1,58.364-74.1,116.737s74.1,58.389,74.1,116.745C205.769,438.477,279.86,438.444,279.86,380.071Z" transform="translate(238.845 320.36)"/><path class="cf" d="M249.4,371.955c0-43.769-55.574-43.769-55.574-87.555,0,43.786-55.574,43.778-55.574,87.555s55.574,43.794,55.574,87.6C193.825,415.757,249.4,415.732,249.4,371.955Z" transform="translate(250.788 345.988)"/><path class="cg" d="M218.934,362.523c0-29.182-37.046-29.182-37.046-58.373,0,29.19-37.056,29.182-37.056,58.373s37.056,29.19,37.056,58.373C181.889,391.721,218.934,391.7,218.934,362.523Z" transform="translate(262.725 370.015)"/><path class="ch" d="M188.463,353.091c0-14.6-18.518-14.6-18.518-29.19,0,14.6-18.528,14.6-18.528,29.19s18.528,14.6,18.528,29.182C169.945,367.686,188.463,367.677,188.463,353.091Z" transform="translate(274.668 394.042)"/><path class="cb" d="M332.537,380.071c0-58.356-74.1-58.356-74.1-116.737,0,58.381-74.1,58.364-74.1,116.737s74.1,58.389,74.1,116.745C258.435,438.477,332.537,438.444,332.537,380.071Z" transform="translate(334.372 320.36)"/><path class="cc" d="M302.065,371.955c0-43.769-55.574-43.769-55.574-87.555,0,43.786-55.574,43.778-55.574,87.555s55.574,43.794,55.574,87.555C246.491,415.757,302.065,415.732,302.065,371.955Z" transform="translate(346.316 345.988)"/><path class="ci" d="M271.594,362.523c0-29.182-37.046-29.182-37.046-58.373,0,29.19-37.046,29.182-37.046,58.373s37.046,29.19,37.046,58.373C234.548,391.721,271.594,391.7,271.594,362.523Z" transform="translate(358.259 370.015)"/><path class="cj" d="M241.139,353.091c0-14.6-18.528-14.6-18.528-29.19,0,14.6-18.528,14.6-18.528,29.19s18.528,14.6,18.528,29.182C222.611,367.686,241.139,367.677,241.139,353.091Z" transform="translate(370.196 394.042)"/><path class="cb" d="M385.2,380.071c0-58.356-74.1-58.356-74.1-116.737C311.094,321.715,237,321.7,237,380.071s74.091,58.389,74.091,116.745C311.094,438.477,385.2,438.444,385.2,380.071Z" transform="translate(429.906 320.36)"/><path class="cc" d="M354.731,371.955c0-43.769-55.574-43.769-55.574-87.555,0,43.786-55.574,43.778-55.574,87.555s55.574,43.794,55.574,87.555C299.157,415.757,354.731,415.732,354.731,371.955Z" transform="translate(441.843 345.988)"/><path class="ci" d="M324.26,362.523c0-29.182-37.046-29.182-37.046-58.373,0,29.19-37.046,29.182-37.046,58.373s37.046,29.19,37.046,58.373C287.214,391.721,324.26,391.7,324.26,362.523Z" transform="translate(453.786 370.015)"/><path class="cj" d="M293.805,353.091c0-14.6-18.528-14.6-18.528-29.19,0,14.6-18.528,14.6-18.528,29.19s18.528,14.6,18.528,29.182C275.277,367.686,293.805,367.677,293.805,353.091Z" transform="translate(465.723 394.042)"/><path class="cb" d="M437.862,380.071c0-58.356-74.1-58.356-74.1-116.737,0,58.381-74.091,58.364-74.091,116.737S363.76,438.46,363.76,496.816C363.76,438.477,437.862,438.444,437.862,380.071Z" transform="translate(525.434 320.36)"/><path class="cc" d="M407.4,371.955c0-43.769-55.574-43.769-55.574-87.555,0,43.786-55.574,43.778-55.574,87.555s55.574,43.794,55.574,87.555C351.824,415.757,407.4,415.732,407.4,371.955Z" transform="translate(537.37 345.988)"/><path class="cd" d="M376.936,362.523c0-29.182-37.056-29.182-37.056-58.373,0,29.19-37.046,29.182-37.046,58.373s37.046,29.19,37.046,58.373C339.88,391.721,376.936,391.7,376.936,362.523Z" transform="translate(549.313 370.015)"/><path class="ce" d="M346.465,353.091c0-14.6-18.528-14.6-18.528-29.19,0,14.6-18.518,14.6-18.518,29.19s18.518,14.6,18.518,29.182C327.937,367.686,346.465,367.677,346.465,353.091Z" transform="translate(561.257 394.042)"/></g></g></g></g></svg>