<svg id="Layer_1" data-name="Layer 1" xmlns="http://www.w3.org/2000/svg" viewBox="0 0 496.5 641.26"><defs><style>.cls-1{fill:#335772;}.cls-2{font-size:31px;fill:#fff;font-family:Arial-BoldMT, Arial;font-weight:700;}.cls-3{font-size:16px;font-family:ArialMT, Arial;font-weight:400;}.cls-4{letter-spacing:-0.04em;}.cls-5{letter-spacing:-0.02em;}.cls-6{fill:none;stroke:#fff;stroke-linecap:round;stroke-linejoin:round;stroke-width:1.5px;}</style></defs><title>Art Deco Quotes_V02</title><rect class="cls-1" width="496.5" height="641.26"/><text class="cls-2" transform="translate(90.59 240.79)">The stock market is a <tspan x="28.44" y="40">device to transfer </tspan><tspan x="41.39" y="80">money from the </tspan><tspan x="-17.15" y="120">impatient to the patient.</tspan><tspan class="cls-3"><tspan x="223.12" y="174.2">– </tspan><tspan class="cls-4" x="236.46" y="174.2">W</tspan><tspan x="250.97" y="174.2">arren Bu</tspan><tspan class="cls-5" x="312.33" y="174.2">f</tspan><tspan x="316.49" y="174.2">fett</tspan></tspan></text><circle class="cls-6" cx="248.25" cy="102.78" r="18.17" transform="translate(52.96 287.31) rotate(-65.87)"/><path class="cls-6" d="M261.33,102.78a13.08,13.08,0,1,0-26.16,0"/><path class="cls-6" d="M256.66,102.78a8.41,8.41,0,0,0-16.82,0"/><line class="cls-6" x1="248.25" y1="89.7" x2="248.25" y2="84.61"/><line class="cls-6" x1="245.98" y1="89.9" x2="245.09" y2="84.88"/><line class="cls-6" x1="243.78" y1="90.49" x2="242.04" y2="85.7"/><line class="cls-6" x1="241.71" y1="91.45" x2="239.16" y2="87.04"/><line class="cls-6" x1="239.84" y1="92.76" x2="236.57" y2="88.86"/><line class="cls-6" x1="238.23" y1="94.37" x2="234.33" y2="91.1"/><line class="cls-6" x1="236.92" y1="96.24" x2="232.51" y2="93.69"/><line class="cls-6" x1="235.96" y1="98.3" x2="231.18" y2="96.56"/><line class="cls-6" x1="235.37" y1="100.51" x2="230.36" y2="99.62"/><line class="cls-6" x1="248.25" y1="102.78" x2="45.33" y2="102.78"/><line class="cls-6" x1="250.52" y1="89.9" x2="251.41" y2="84.88"/><line class="cls-6" x1="252.72" y1="90.49" x2="254.46" y2="85.7"/><line class="cls-6" x1="254.79" y1="91.45" x2="257.34" y2="87.04"/><line class="cls-6" x1="256.66" y1="92.76" x2="259.93" y2="88.86"/><line class="cls-6" x1="258.27" y1="94.37" x2="262.17" y2="91.1"/><line class="cls-6" x1="259.58" y1="96.24" x2="263.99" y2="93.69"/><line class="cls-6" x1="260.54" y1="98.3" x2="265.32" y2="96.56"/><line class="cls-6" x1="261.13" y1="100.51" x2="266.14" y2="99.62"/><line class="cls-6" x1="261.33" y1="102.78" x2="266.42" y2="102.78"/><line class="cls-6" x1="248.25" y1="102.78" x2="248.25" y2="120.95"/><line class="cls-6" x1="248.25" y1="102.78" x2="252.95" y2="120.33"/><line class="cls-6" x1="248.25" y1="102.78" x2="257.33" y2="118.51"/><line class="cls-6" x1="248.25" y1="102.78" x2="261.1" y2="115.63"/><line class="cls-6" x1="248.25" y1="102.78" x2="263.99" y2="111.86"/><line class="cls-6" x1="248.25" y1="102.78" x2="265.8" y2="107.48"/><line class="cls-6" x1="248.25" y1="102.78" x2="243.55" y2="120.33"/><line class="cls-6" x1="248.25" y1="102.78" x2="239.16" y2="118.51"/><line class="cls-6" x1="248.25" y1="102.78" x2="235.4" y2="115.63"/><line class="cls-6" x1="248.25" y1="102.78" x2="232.51" y2="111.86"/><line class="cls-6" x1="248.25" y1="102.78" x2="230.7" y2="107.48"/><polyline class="cls-6" points="235.4 115.63 227.15 123.88 206.04 102.78 227.15 81.67 234.94 89.47"/><line class="cls-6" x1="230.36" y1="99.62" x2="209.45" y2="99.62"/><line class="cls-6" x1="231.18" y1="96.56" x2="212.26" y2="96.56"/><line class="cls-6" x1="230.36" y1="105.93" x2="209.45" y2="105.93"/><line class="cls-6" x1="231.18" y1="108.99" x2="212.26" y2="108.99"/><line class="cls-6" x1="248.25" y1="102.78" x2="451.17" y2="102.78"/><polyline class="cls-6" points="261.1 115.63 269.35 123.88 290.46 102.78 269.35 81.67 261.56 89.47"/><line class="cls-6" x1="266.14" y1="99.62" x2="287.05" y2="99.62"/><line class="cls-6" x1="265.32" y1="96.56" x2="284.24" y2="96.56"/><line class="cls-6" x1="266.14" y1="105.93" x2="287.05" y2="105.93"/><line class="cls-6" x1="265.32" y1="108.99" x2="284.24" y2="108.99"/><path class="cls-6" d="M215.84,112.58a13.86,13.86,0,1,1-.25-19.85"/><path class="cls-6" d="M152.59,102.78a7,7,0,1,1-7-7A7,7,0,0,1,152.59,102.78Z"/><line class="cls-6" x1="145.63" y1="90.98" x2="145.63" y2="114.58"/><path class="cls-6" d="M280.66,112.58a13.86,13.86,0,1,0,.25-19.85"/><path class="cls-6" d="M343.91,102.78a7,7,0,1,0,7-7A7,7,0,0,0,343.91,102.78Z"/><line class="cls-6" x1="350.87" y1="90.98" x2="350.87" y2="114.58"/><circle class="cls-6" cx="248.25" cy="543.78" r="18.17" transform="translate(-349.5 548.01) rotate(-65.87)"/><path class="cls-6" d="M261.33,543.78a13.08,13.08,0,1,0-26.16,0"/><path class="cls-6" d="M256.66,543.78a8.41,8.41,0,0,0-16.82,0"/><line class="cls-6" x1="248.25" y1="530.7" x2="248.25" y2="525.61"/><line class="cls-6" x1="245.98" y1="530.9" x2="245.09" y2="525.88"/><line class="cls-6" x1="243.78" y1="531.49" x2="242.04" y2="526.7"/><line class="cls-6" x1="241.71" y1="532.45" x2="239.16" y2="528.04"/><line class="cls-6" x1="239.84" y1="533.76" x2="236.57" y2="529.86"/><line class="cls-6" x1="238.23" y1="535.37" x2="234.33" y2="532.1"/><line class="cls-6" x1="236.92" y1="537.24" x2="232.51" y2="534.69"/><line class="cls-6" x1="235.96" y1="539.3" x2="231.18" y2="537.56"/><line class="cls-6" x1="235.37" y1="541.51" x2="230.36" y2="540.62"/><line class="cls-6" x1="248.25" y1="543.78" x2="45.33" y2="543.78"/><line class="cls-6" x1="250.52" y1="530.9" x2="251.41" y2="525.88"/><line class="cls-6" x1="252.72" y1="531.49" x2="254.46" y2="526.7"/><line class="cls-6" x1="254.79" y1="532.45" x2="257.34" y2="528.04"/><line class="cls-6" x1="256.66" y1="533.76" x2="259.93" y2="529.86"/><line class="cls-6" x1="258.27" y1="535.37" x2="262.17" y2="532.1"/><line class="cls-6" x1="259.58" y1="537.24" x2="263.99" y2="534.69"/><line class="cls-6" x1="260.54" y1="539.3" x2="265.32" y2="537.56"/><line class="cls-6" x1="261.13" y1="541.51" x2="266.14" y2="540.62"/><line class="cls-6" x1="261.33" y1="543.78" x2="266.42" y2="543.78"/><line class="cls-6" x1="248.25" y1="543.78" x2="248.25" y2="561.95"/><line class="cls-6" x1="248.25" y1="543.78" x2="252.95" y2="561.33"/><line class="cls-6" x1="248.25" y1="543.78" x2="257.33" y2="559.51"/><line class="cls-6" x1="248.25" y1="543.78" x2="261.1" y2="556.63"/><line class="cls-6" x1="248.25" y1="543.78" x2="263.99" y2="552.86"/><line class="cls-6" x1="248.25" y1="543.78" x2="265.8" y2="548.48"/><line class="cls-6" x1="248.25" y1="543.78" x2="243.55" y2="561.33"/><line class="cls-6" x1="248.25" y1="543.78" x2="239.16" y2="559.51"/><line class="cls-6" x1="248.25" y1="543.78" x2="235.4" y2="556.63"/><line class="cls-6" x1="248.25" y1="543.78" x2="232.51" y2="552.86"/><line class="cls-6" x1="248.25" y1="543.78" x2="230.7" y2="548.48"/><polyline class="cls-6" points="235.4 556.63 227.15 564.88 206.04 543.78 227.15 522.67 234.94 530.47"/><line class="cls-6" x1="230.36" y1="540.62" x2="209.45" y2="540.62"/><line class="cls-6" x1="231.18" y1="537.56" x2="212.26" y2="537.56"/><line class="cls-6" x1="230.36" y1="546.93" x2="209.45" y2="546.93"/><line class="cls-6" x1="231.18" y1="549.99" x2="212.26" y2="549.99"/><line class="cls-6" x1="248.25" y1="543.78" x2="451.17" y2="543.78"/><polyline class="cls-6" points="261.1 556.63 269.35 564.88 290.46 543.78 269.35 522.67 261.56 530.47"/><line class="cls-6" x1="266.14" y1="540.62" x2="287.05" y2="540.62"/><line class="cls-6" x1="265.32" y1="537.56" x2="284.24" y2="537.56"/><line class="cls-6" x1="266.14" y1="546.93" x2="287.05" y2="546.93"/><line class="cls-6" x1="265.32" y1="549.99" x2="284.24" y2="549.99"/><path class="cls-6" d="M215.84,553.58a13.86,13.86,0,1,1-.25-19.85"/><path class="cls-6" d="M152.59,543.78a7,7,0,1,1-7-7A7,7,0,0,1,152.59,543.78Z"/><line class="cls-6" x1="145.63" y1="531.98" x2="145.63" y2="555.58"/><path class="cls-6" d="M280.66,553.58a13.86,13.86,0,1,0,.25-19.85"/><path class="cls-6" d="M343.91,543.78a7,7,0,1,0,7-7A7,7,0,0,0,343.91,543.78Z"/><line class="cls-6" x1="350.87" y1="531.98" x2="350.87" y2="555.58"/></svg>