<svg id="Layer_1" data-name="Layer 1" xmlns="http://www.w3.org/2000/svg" viewBox="0 0 496.5 641.26"><defs><style>.cls-1{fill:#865e31;}.cls-2{font-size:31px;fill:#fff;font-family:Arial-BoldMT, Arial;font-weight:700;}.cls-3{font-size:16px;font-family:ArialMT, Arial;font-weight:400;}.cls-4{fill:none;stroke:#fff;stroke-linecap:round;stroke-linejoin:round;stroke-width:1.5px;}</style></defs><title>Art Deco Quotes_V02</title><rect class="cls-1" width="496.5" height="641.26"/><text class="cls-2" transform="translate(136.33 243.95)">The function of <tspan x="-65.52" y="40">economic forecasting is </tspan><tspan x="-56.9" y="80">to make astrology look </tspan><tspan x="21.46" y="120">respectable.</tspan><tspan class="cls-3"><tspan x="116.46" y="174.2">– John Kenneth Galbraith</tspan></tspan></text><rect class="cls-4" x="227.91" y="49.53" width="40.68" height="40.68" transform="translate(122.12 -155.07) rotate(45)"/><rect class="cls-4" x="233.35" y="54.98" width="29.79" height="29.79" transform="translate(122.12 -155.07) rotate(45)"/><line class="cls-4" x1="244.4" y1="44.96" x2="273.17" y2="73.72"/><line class="cls-4" x1="223.33" y1="73.72" x2="252.1" y2="44.96"/><line class="cls-4" x1="252.1" y1="94.79" x2="223.33" y2="66.02"/><line class="cls-4" x1="273.17" y1="66.02" x2="244.4" y2="94.79"/><polyline class="cls-4" points="232.99 56.36 192.93 56.36 179.72 69.57"/><line class="cls-4" x1="191.53" y1="61.34" x2="196.4" y2="56.46"/><line class="cls-4" x1="195.51" y1="61.34" x2="200.39" y2="56.46"/><line class="cls-4" x1="199.5" y1="61.34" x2="204.38" y2="56.46"/><line class="cls-4" x1="203.49" y1="61.34" x2="208.37" y2="56.46"/><line class="cls-4" x1="207.48" y1="61.34" x2="212.36" y2="56.46"/><line class="cls-4" x1="211.47" y1="61.34" x2="216.34" y2="56.46"/><line class="cls-4" x1="215.46" y1="61.34" x2="220.33" y2="56.46"/><line class="cls-4" x1="219.44" y1="61.34" x2="224.32" y2="56.46"/><line class="cls-4" x1="223.43" y1="61.34" x2="228.31" y2="56.46"/><line class="cls-4" x1="219.48" y1="69.87" x2="45.33" y2="69.87"/><line class="cls-4" x1="223.33" y1="66.02" x2="183.27" y2="66.02"/><polyline class="cls-4" points="85.25 69.57 93.59 61.23 187.96 61.34 228.02 61.34"/><polyline class="cls-4" points="263.51 56.36 303.57 56.36 316.78 69.57"/><line class="cls-4" x1="304.97" y1="61.34" x2="300.1" y2="56.46"/><line class="cls-4" x1="300.99" y1="61.34" x2="296.11" y2="56.46"/><line class="cls-4" x1="297" y1="61.34" x2="292.12" y2="56.46"/><line class="cls-4" x1="293.01" y1="61.34" x2="288.13" y2="56.46"/><line class="cls-4" x1="289.02" y1="61.34" x2="284.14" y2="56.46"/><line class="cls-4" x1="285.03" y1="61.34" x2="280.16" y2="56.46"/><line class="cls-4" x1="281.04" y1="61.34" x2="276.17" y2="56.46"/><line class="cls-4" x1="277.06" y1="61.34" x2="272.18" y2="56.46"/><line class="cls-4" x1="273.07" y1="61.34" x2="268.19" y2="56.46"/><line class="cls-4" x1="277.02" y1="69.87" x2="451.17" y2="69.87"/><line class="cls-4" x1="273.17" y1="66.02" x2="313.23" y2="66.02"/><polyline class="cls-4" points="411.25 69.57 402.91 61.23 308.55 61.34 268.48 61.34"/><polyline class="cls-4" points="232.99 83.38 192.93 83.38 179.72 70.18"/><line class="cls-4" x1="191.53" y1="78.41" x2="196.4" y2="83.29"/><line class="cls-4" x1="195.51" y1="78.41" x2="200.39" y2="83.29"/><line class="cls-4" x1="199.5" y1="78.41" x2="204.38" y2="83.29"/><line class="cls-4" x1="203.49" y1="78.41" x2="208.37" y2="83.29"/><line class="cls-4" x1="207.48" y1="78.41" x2="212.36" y2="83.29"/><line class="cls-4" x1="211.47" y1="78.41" x2="216.34" y2="83.29"/><line class="cls-4" x1="215.46" y1="78.41" x2="220.33" y2="83.29"/><line class="cls-4" x1="219.44" y1="78.41" x2="224.32" y2="83.29"/><line class="cls-4" x1="223.43" y1="78.41" x2="228.31" y2="83.29"/><line class="cls-4" x1="223.33" y1="73.72" x2="183.27" y2="73.72"/><polyline class="cls-4" points="85.25 70.18 93.59 78.52 187.96 78.41 228.02 78.41"/><polyline class="cls-4" points="263.51 83.38 303.57 83.38 316.78 70.18"/><line class="cls-4" x1="304.97" y1="78.41" x2="300.1" y2="83.29"/><line class="cls-4" x1="300.99" y1="78.41" x2="296.11" y2="83.29"/><line class="cls-4" x1="297" y1="78.41" x2="292.12" y2="83.29"/><line class="cls-4" x1="293.01" y1="78.41" x2="288.13" y2="83.29"/><line class="cls-4" x1="289.02" y1="78.41" x2="284.14" y2="83.29"/><line class="cls-4" x1="285.03" y1="78.41" x2="280.16" y2="83.29"/><line class="cls-4" x1="281.04" y1="78.41" x2="276.17" y2="83.29"/><line class="cls-4" x1="277.06" y1="78.41" x2="272.18" y2="83.29"/><line class="cls-4" x1="273.07" y1="78.41" x2="268.19" y2="83.29"/><line class="cls-4" x1="273.17" y1="73.72" x2="313.23" y2="73.72"/><polyline class="cls-4" points="411.25 70.18 402.91 78.52 308.55 78.41 268.48 78.41"/><rect class="cls-4" x="227.91" y="550.53" width="40.68" height="40.68" transform="translate(476.38 -8.33) rotate(45)"/><rect class="cls-4" x="233.35" y="555.98" width="29.79" height="29.79" transform="translate(476.38 -8.33) rotate(45)"/><line class="cls-4" x1="244.4" y1="545.96" x2="273.17" y2="574.72"/><line class="cls-4" x1="223.33" y1="574.72" x2="252.1" y2="545.96"/><line class="cls-4" x1="252.1" y1="595.79" x2="223.33" y2="567.02"/><line class="cls-4" x1="273.17" y1="567.02" x2="244.4" y2="595.79"/><polyline class="cls-4" points="232.99 557.36 192.93 557.36 179.72 570.57"/><line class="cls-4" x1="191.53" y1="562.34" x2="196.4" y2="557.46"/><line class="cls-4" x1="195.51" y1="562.34" x2="200.39" y2="557.46"/><line class="cls-4" x1="199.5" y1="562.34" x2="204.38" y2="557.46"/><line class="cls-4" x1="203.49" y1="562.34" x2="208.37" y2="557.46"/><line class="cls-4" x1="207.48" y1="562.34" x2="212.36" y2="557.46"/><line class="cls-4" x1="211.47" y1="562.34" x2="216.34" y2="557.46"/><line class="cls-4" x1="215.46" y1="562.34" x2="220.33" y2="557.46"/><line class="cls-4" x1="219.44" y1="562.34" x2="224.32" y2="557.46"/><line class="cls-4" x1="223.43" y1="562.34" x2="228.31" y2="557.46"/><line class="cls-4" x1="219.48" y1="570.87" x2="45.33" y2="570.87"/><line class="cls-4" x1="223.33" y1="567.02" x2="183.27" y2="567.02"/><polyline class="cls-4" points="85.25 570.57 93.59 562.23 187.96 562.34 228.02 562.34"/><polyline class="cls-4" points="263.51 557.36 303.57 557.36 316.78 570.57"/><line class="cls-4" x1="304.97" y1="562.34" x2="300.1" y2="557.46"/><line class="cls-4" x1="300.99" y1="562.34" x2="296.11" y2="557.46"/><line class="cls-4" x1="297" y1="562.34" x2="292.12" y2="557.46"/><line class="cls-4" x1="293.01" y1="562.34" x2="288.13" y2="557.46"/><line class="cls-4" x1="289.02" y1="562.34" x2="284.14" y2="557.46"/><line class="cls-4" x1="285.03" y1="562.34" x2="280.16" y2="557.46"/><line class="cls-4" x1="281.04" y1="562.34" x2="276.17" y2="557.46"/><line class="cls-4" x1="277.06" y1="562.34" x2="272.18" y2="557.46"/><line class="cls-4" x1="273.07" y1="562.34" x2="268.19" y2="557.46"/><line class="cls-4" x1="277.02" y1="570.87" x2="451.17" y2="570.87"/><line class="cls-4" x1="273.17" y1="567.02" x2="313.23" y2="567.02"/><polyline class="cls-4" points="411.25 570.57 402.91 562.23 308.55 562.34 268.48 562.34"/><polyline class="cls-4" points="232.99 584.38 192.93 584.38 179.72 571.18"/><line class="cls-4" x1="191.53" y1="579.41" x2="196.4" y2="584.29"/><line class="cls-4" x1="195.51" y1="579.41" x2="200.39" y2="584.29"/><line class="cls-4" x1="199.5" y1="579.41" x2="204.38" y2="584.29"/><line class="cls-4" x1="203.49" y1="579.41" x2="208.37" y2="584.29"/><line class="cls-4" x1="207.48" y1="579.41" x2="212.36" y2="584.29"/><line class="cls-4" x1="211.47" y1="579.41" x2="216.34" y2="584.29"/><line class="cls-4" x1="215.46" y1="579.41" x2="220.33" y2="584.29"/><line class="cls-4" x1="219.44" y1="579.41" x2="224.32" y2="584.29"/><line class="cls-4" x1="223.43" y1="579.41" x2="228.31" y2="584.29"/><line class="cls-4" x1="223.33" y1="574.72" x2="183.27" y2="574.72"/><polyline class="cls-4" points="85.25 571.18 93.59 579.52 187.96 579.41 228.02 579.41"/><polyline class="cls-4" points="263.51 584.38 303.57 584.38 316.78 571.18"/><line class="cls-4" x1="304.97" y1="579.41" x2="300.1" y2="584.29"/><line class="cls-4" x1="300.99" y1="579.41" x2="296.11" y2="584.29"/><line class="cls-4" x1="297" y1="579.41" x2="292.12" y2="584.29"/><line class="cls-4" x1="293.01" y1="579.41" x2="288.13" y2="584.29"/><line class="cls-4" x1="289.02" y1="579.41" x2="284.14" y2="584.29"/><line class="cls-4" x1="285.03" y1="579.41" x2="280.16" y2="584.29"/><line class="cls-4" x1="281.04" y1="579.41" x2="276.17" y2="584.29"/><line class="cls-4" x1="277.06" y1="579.41" x2="272.18" y2="584.29"/><line class="cls-4" x1="273.07" y1="579.41" x2="268.19" y2="584.29"/><line class="cls-4" x1="273.17" y1="574.72" x2="313.23" y2="574.72"/><polyline class="cls-4" points="411.25 571.18 402.91 579.52 308.55 579.41 268.48 579.41"/></svg>